<?xml version="1.0" encoding="UTF-8"?>
<svg width="426px" height="53px" viewBox="0 0 426 53" version="1.1" xmlns="http://www.w3.org/2000/svg" xmlns:xlink="http://www.w3.org/1999/xlink">
    <!-- Generator: Sketch 43.2 (39069) - http://www.bohemiancoding.com/sketch -->
    <title>Co:Mission</title>
    <desc>Created with Sketch.</desc>
    <defs></defs>
    <g id="Affilications" stroke="none" stroke-width="1" fill="none" fill-rule="evenodd">
        <g id="comission-white" fill="currentColor">
            <g id="comission-white">
                <path d="M27.414,52.862 C11.074,52.862 0,41.857 0,27.021 C0,12.117 11.074,1.111 27.414,1.111 C33.225,1.111 38.558,2.818 43.069,5.487 L39.514,15.331 C35.822,13.28 31.652,11.982 27.55,11.982 C18.185,11.982 12.374,17.725 12.374,27.021 C12.374,36.317 18.185,42.064 27.55,42.064 C31.652,42.064 36.301,40.693 40.062,38.369 L43.548,48.216 C39.172,51.086 33.156,52.862 27.414,52.862" id="Fill-1"></path>
                <path d="M71.035,11.502 C63.104,11.502 57.772,17.997 57.772,27.021 C57.772,35.976 63.104,42.54 71.035,42.54 C78.964,42.54 84.297,35.976 84.297,27.021 C84.297,17.997 78.964,11.502 71.035,11.502 Z M70.829,52.862 C55.31,52.862 45.398,41.719 45.398,27.021 C45.398,12.254 55.789,1.111 71.308,1.111 C86.758,1.111 96.739,12.254 96.739,27.021 C96.739,41.719 86.279,52.862 70.829,52.862 L70.829,52.862 Z" id="Fill-2"></path>
                <polygon id="Fill-3" points="101.668 38.78 119.239 38.78 119.239 31.602 101.668 31.602"></polygon>
                <polyline id="Fill-4" points="166.617 52.042 166.001 27.433 152.123 45 150.894 45 136.878 27.433 136.399 52.042 125.188 52.042 127.512 1.589 129.085 1.453 151.781 30.097 173.932 1.453 175.504 1.589 177.897 52.042 166.617 52.042"></polyline>
                <polygon id="Fill-5" points="186.451 52.042 198.073 52.042 198.073 1.931 186.451 1.931"></polygon>
                <path d="M220.43,52.862 C214.756,52.862 207.92,50.607 203.544,47.735 L206.759,37.208 C210.79,40.147 216.054,42.064 220.773,42.064 C224.874,42.064 226.448,40.147 226.448,37.686 C226.448,35.089 225.147,33.312 217.49,30.234 C208.673,26.679 205.596,21.553 205.596,15.535 C205.596,8.221 211.544,1.111 223.232,1.111 C228.702,1.111 234.309,3.024 237.248,5.008 L234.309,15.399 C231.439,13.417 226.789,11.299 223.232,11.299 C218.994,11.299 217.287,13.28 217.287,15.331 C217.287,18.612 219.816,19.707 226.104,22.372 C235.47,26.337 238.274,30.85 238.274,37.275 C238.274,45.275 232.461,52.862 220.43,52.862" id="Fill-6"></path>
                <path d="M257.488,52.862 C251.814,52.862 244.978,50.607 240.602,47.735 L243.817,37.208 C247.849,40.147 253.112,42.064 257.831,42.064 C261.931,42.064 263.504,40.147 263.504,37.686 C263.504,35.089 262.205,33.312 254.548,30.234 C245.731,26.679 242.654,21.553 242.654,15.535 C242.654,8.221 248.601,1.111 260.29,1.111 C265.76,1.111 271.369,3.024 274.304,5.008 L271.369,15.399 C268.496,13.417 263.846,11.299 260.29,11.299 C256.053,11.299 254.344,13.28 254.344,15.331 C254.344,18.612 256.874,19.707 263.162,22.372 C272.53,26.337 275.333,30.85 275.333,37.275 C275.333,45.275 269.521,52.862 257.488,52.862" id="Fill-7"></path>
                <polygon id="Fill-8" points="281.762 52.042 293.383 52.042 293.383 1.931 281.762 1.931"></polygon>
                <path d="M326.542,11.502 C318.614,11.502 313.28,17.997 313.28,27.021 C313.28,35.976 318.614,42.54 326.542,42.54 C334.473,42.54 339.806,35.976 339.806,27.021 C339.806,17.997 334.473,11.502 326.542,11.502 Z M326.339,52.862 C310.819,52.862 300.907,41.719 300.907,27.021 C300.907,12.254 311.298,1.111 326.817,1.111 C342.267,1.111 352.249,12.254 352.249,27.021 C352.249,41.719 341.79,52.862 326.339,52.862 L326.339,52.862 Z" id="Fill-9"></path>
                <polyline id="Fill-11" points="401.272 53 371.056 25.859 371.056 52.042 359.433 52.042 359.433 1.247 361.006 0.975 390.813 27.911 390.813 1.931 402.436 1.931 402.436 52.793 401.272 53"></polyline>
                <path d="M409.971,27.087 C409.971,22.881 413.379,19.472 417.583,19.472 C421.788,19.472 425.197,22.881 425.197,27.087 C425.197,31.291 421.788,34.699 417.583,34.699 C413.379,34.699 409.971,31.291 409.971,27.087" id="Fill-13"></path>
                <path d="M409.971,9.544 C409.971,5.341 413.379,1.933 417.583,1.933 C421.788,1.933 425.197,5.341 425.197,9.544 C425.197,13.749 421.788,17.16 417.583,17.16 C413.379,17.16 409.971,13.749 409.971,9.544" id="Fill-14"></path>
                <path d="M409.971,44.627 C409.971,40.424 413.379,37.014 417.583,37.014 C421.788,37.014 425.197,40.424 425.197,44.627 C425.197,48.831 421.788,52.241 417.583,52.241 C413.379,52.241 409.971,48.831 409.971,44.627" id="Fill-15"></path>
            </g>
        </g>
    </g>
</svg>
