<svg xmlns="http://www.w3.org/2000/svg" width="409" height="71" viewBox="0 0 409 71">
  <title>
    Fellowship of Evangelical Churches
  </title>
  <g fill="none" fill-rule="nonzero">
    <path fill="currentColor" d="M408.83 31.404L398.557 17.26l-8.076 5.862 6.02 8.282-6.02 8.28 8.077 5.863M396.793 14.84L386.523.696l-16.627 5.4 3.08 9.492 9.736-3.16 6.01 8.274M396.793 47.967l-8.07-5.862-6.01 8.276-9.736-3.16-3.08 9.49 16.625 5.4M370.127 16.512l-3.08-9.486-16.626 5.4v17.48h9.98V19.674M370.127 46.296l-9.728-3.162V32.9h-9.98v17.48l16.625 5.4"/>
    <path fill="currentColor" d="M408.83 31.404L398.557 17.26l-8.076 5.862 6.02 8.282M386.522.696l-16.626 5.4 3.08 9.493 9.736-3.164M396.793 47.967l-8.07-5.862-6.01 8.276 3.81 11.73M350.42 12.427v17.48h9.98V19.673M370.127 46.296l-9.728-3.162-9.98 7.247 16.625 5.4"/>
    <path fill="currentColor" d="M259.638 2.386c-4.157 0-7.49 1.17-10.01 3.514-2.52 2.345-4.21 5.98-5.095 10.934l-.15.537h-5.51c-.486 1.283-.806 2.486-.984 3.636-.18 1.15-.27 2.32-.27 3.515h5.512l-4.856 27.054c1.592.265 3.067.417 4.44.417 1.502 0 3.115-.15 4.796-.416l4.826-27.053h7.24c.485-1.326.805-2.52.982-3.604.177-1.084.268-2.263.268-3.545h-7.21l.12-.595c.265-1.373.577-2.513.953-3.398.377-.884.833-1.57 1.34-2.055.51-.487 1.088-.814 1.73-1.013.642-.2 1.35-.3 2.146-.3.664 0 1.302.04 1.877.15.575.11 1.123.27 1.698.447.62-1.15 1.153-2.306 1.55-3.456.398-1.15.73-2.442 1.043-3.902-1.018-.31-2.014-.553-3.01-.686-.994-.132-2.142-.178-3.426-.178v.002zm9.92 9.21c-.044-1.547.055-3.018.3-4.41.242-1.394.63-2.865 1.16-4.413.796-.177 1.637-.298 2.522-.364.885-.067 1.68-.1 2.388-.1.707 0 1.492.033 2.355.1.862.065 1.67.186 2.42.363 0 1.548-.13 3.03-.396 4.446-.266 1.414-.664 2.873-1.194 4.377-.796.133-1.626.222-2.488.266-.863.045-1.648.067-2.355.067-.664 0-1.44-.022-2.324-.067-.885-.044-1.68-.133-2.388-.265v-.002zm-1.923 12.94h-4.18c0-.133-.012-.266-.034-.4-.02-.132-.03-.287-.03-.463 0-1.15.11-2.223.33-3.22.22-.994.553-2.022.996-3.084h13.402l-6.038 34.3c-1.682.266-3.274.4-4.777.4-1.372 0-2.854-.134-4.447-.4l4.78-27.135zm24.463 7.363c1.68-.266 3.052-.608 4.114-1.03 1.06-.42 1.902-.884 2.52-1.393.62-.508 1.04-1.027 1.26-1.558.222-.53.333-1.06.333-1.59 0-.843-.276-1.53-.83-2.06-.552-.53-1.293-.795-2.22-.795-1.15 0-2.202.254-3.153.762-.95.508-1.78 1.183-2.488 2.023-.708.84-1.316 1.802-1.825 2.886-.51 1.083-.898 2.178-1.163 3.283l3.45-.53zm-3.782 6.765c.265 2.123.972 3.704 2.122 4.743 1.15 1.04 2.83 1.56 5.044 1.56 1.77 0 3.328-.188 4.677-.564 1.346-.377 2.773-.874 4.28-1.493.705.885 1.18 1.958 1.424 3.22.243 1.26.364 2.597.364 4.012-.753.353-1.626.674-2.62.96-.996.29-2.024.532-3.085.73-1.062.2-2.124.355-3.186.466-1.062.11-2.013.166-2.854.166-2.7 0-5.01-.332-6.933-.995-1.923-.664-3.516-1.604-4.776-2.82-1.26-1.217-2.19-2.698-2.787-4.446-.598-1.747-.896-3.683-.896-5.806 0-2.697.465-5.35 1.394-7.96.928-2.61 2.244-4.943 3.948-7 1.703-2.056 3.783-3.715 6.237-4.975 2.454-1.262 5.207-1.892 8.26-1.892 1.46 0 2.82.177 4.08.53 1.26.355 2.354.896 3.283 1.626.93.73 1.66 1.625 2.19 2.687.53 1.06.797 2.3.797 3.716 0 1.99-.465 3.713-1.395 5.173-.93 1.46-2.167 2.7-3.715 3.716s-3.306 1.845-5.275 2.487c-1.968.642-4.014 1.117-6.137 1.427l-4.444.73h.002zm44.627 4.846c.486.796.884 1.746 1.194 2.853.31 1.106.465 2.565.465 4.378-1.416.62-2.92 1.063-4.512 1.328-1.593.265-3.34.398-5.24.398-5.043 0-8.736-1.227-11.08-3.682-2.345-2.455-3.518-5.827-3.518-10.12 0-2.608.432-5.228 1.294-7.86.863-2.63 2.134-4.997 3.815-7.098 1.68-2.1 3.75-3.815 6.206-5.142 2.455-1.327 5.297-1.99 8.526-1.99 1.504 0 2.964.11 4.38.33 1.414.222 2.763.575 4.045 1.063-.043 1.15-.242 2.378-.596 3.683-.354 1.304-.907 2.554-1.66 3.748-.972-.397-1.934-.706-2.885-.928-.95-.22-2.002-.332-3.152-.332-1.725 0-3.23.387-4.51 1.16-1.283.775-2.356 1.793-3.218 3.054-.863 1.26-1.504 2.71-1.925 4.346-.42 1.636-.63 3.34-.63 5.107 0 2.434.618 4.225 1.856 5.376 1.24 1.15 2.81 1.726 4.71 1.726.974 0 1.936-.09 2.887-.266.95-.176 2.134-.552 3.55-1.127v-.002zM49.358 64.444h-.894c0-.148.012-.29.033-.425.023-.136.063-.285.122-.447h.88c.037-.19.07-.385.1-.583.03-.198.043-.404.043-.617v-.177c.148-.073.324-.128.53-.165.206-.036.382-.054.53-.054.007.066.012.132.016.198.002.067.005.136.005.21 0 .228-.03.51-.09.85l-.065.34h1.424c0 .163-.01.312-.033.448-.02.136-.057.277-.11.425h-1.41l-.43 2.392c-.037.17-.07.343-.1.524-.03.18-.044.344-.044.49 0 .22.057.374.17.46.115.084.267.126.46.126.124 0 .238-.01.34-.03.104-.017.207-.04.31-.07.022.073.04.154.054.242.014.09.022.184.022.287v.16c0 .055-.004.11-.012.17-.095.03-.22.058-.374.084-.155.024-.32.037-.497.037-.237 0-.45-.015-.647-.05-.195-.032-.362-.094-.502-.186-.14-.09-.247-.216-.324-.374-.077-.16-.116-.367-.116-.624 0-.14.014-.288.04-.447.025-.16.053-.322.082-.49l.486-2.703zm3.89-1.027c.072-.41.13-.766.175-1.064.044-.298.066-.564.066-.8 0-.088-.004-.157-.007-.21l-.017-.197c.08-.016.18-.027.298-.034.118-.007.217-.01.297-.01.075 0 .158.003.25.01.09.008.174.02.248.034.02.13.032.267.032.407 0 .08-.006.18-.016.293-.012.113-.024.233-.04.357-.014.125-.032.254-.054.386-.022.133-.044.258-.066.375-.052.25-.1.5-.144.746l-.132.744c.206-.272.47-.507.794-.705.324-.2.69-.298 1.103-.298.45 0 .8.118 1.053.353.254.235.38.6.38 1.092 0 .11-.007.23-.02.362-.016.133-.034.265-.057.398l-.627 3.573c-.08.015-.175.024-.28.028-.108.004-.202.006-.283.006-.08 0-.17-.003-.27-.006s-.185-.012-.26-.027c.104-.574.203-1.14.3-1.698.094-.56.194-1.126.296-1.7l.045-.33c.015-.11.023-.207.023-.288 0-.28-.076-.485-.226-.617-.152-.13-.345-.198-.58-.198-.17 0-.342.037-.52.11-.175.074-.343.2-.5.38-.16.18-.304.424-.436.73-.132.304-.24.688-.32 1.152-.08.42-.155.83-.225 1.234l-.215 1.223c-.103.015-.21.024-.32.028-.11.004-.217.006-.32.006l-.198-.004c-.096-.003-.18-.012-.254-.027l1.027-5.813h.002zm7.072 2.637c.376-.067.687-.142.933-.226.246-.084.443-.176.59-.275.147-.1.25-.204.31-.314.058-.11.087-.23.087-.363 0-.17-.06-.308-.177-.414-.117-.106-.286-.16-.507-.16-.235 0-.452.054-.65.16-.2.107-.377.247-.536.42-.158.173-.292.37-.402.596-.11.224-.195.453-.254.69l.607-.11v-.003zm-.694.926c.022.492.147.863.375 1.113.23.25.583.375 1.06.375.295 0 .574-.035.84-.105.264-.07.503-.145.716-.226.066.11.114.244.143.398.03.155.043.31.043.463-.11.053-.244.1-.402.145-.157.044-.323.082-.496.115-.172.033-.347.06-.523.077-.176.02-.337.028-.485.028-.433 0-.8-.057-1.097-.17-.298-.115-.54-.273-.728-.475-.19-.202-.325-.44-.41-.717-.084-.274-.126-.574-.126-.897 0-.45.076-.892.226-1.33.15-.437.368-.83.65-1.174.284-.346.622-.625 1.016-.84.393-.212.832-.32 1.317-.32.486 0 .87.12 1.153.36.283.24.425.557.425.954 0 .324-.077.605-.235.844-.158.238-.377.442-.657.61-.28.17-.608.31-.987.42-.377.11-.79.2-1.24.265l-.573.088zm8.007-5.68h4.346c0 .03 0 .06.003.087.004.03.006.06.006.09 0 .19-.023.386-.067.584-.044.2-.107.4-.188.608H69l-.32 1.865h2.174c0 .235-.02.463-.06.683-.04.22-.102.453-.182.695H68.44l-.586 3.32c-.3.045-.574.067-.816.067-.265 0-.53-.023-.794-.067l1.39-7.93zm5.6 0h4.347c0 .03.002.06.005.087.004.03.006.06.006.09 0 .19-.02.386-.064.584-.044.2-.107.4-.188.608h-2.735l-.298 1.72h2.173c0 .442-.08.902-.243 1.38h-2.172l-.375 2.095H76.5c0 .03 0 .057.005.083.003.026.005.053.005.083 0 .2-.024.395-.07.59-.05.195-.106.4-.172.612h-4.423l1.39-7.93V61.3zm5.84 0c.28-.05.55-.078.815-.078.257 0 .515.026.772.077l-1.147 6.54h2.603c0 .124-.008.244-.022.36l-.044.323c-.022.118-.048.233-.078.347-.03.114-.062.234-.1.36h-4.19l1.39-7.93zm5.384 0c.28-.05.552-.078.816-.078.258 0 .515.026.772.077l-1.147 6.54H87.5c0 .124-.007.244-.02.36l-.045.323c-.022.118-.048.233-.077.347-.03.114-.063.234-.1.36h-4.19l1.39-7.93zm7.106 6.716c.287 0 .542-.064.767-.193.224-.13.42-.298.584-.507.166-.21.307-.453.425-.728.115-.276.21-.56.28-.85.07-.29.12-.58.154-.865.033-.287.05-.548.05-.784 0-1.03-.398-1.544-1.192-1.544-.287 0-.542.064-.767.192-.224.13-.42.298-.59.508-.17.21-.312.452-.43.728-.117.276-.21.56-.28.85-.07.29-.123.578-.156.865-.033.285-.05.55-.05.793 0 1.022.4 1.533 1.202 1.533zm-.145 1.345c-.934 0-1.623-.26-2.068-.782-.445-.522-.667-1.246-.667-2.173 0-.397.034-.804.104-1.22.07-.415.177-.817.325-1.207.147-.39.33-.755.55-1.097.222-.34.484-.64.79-.893.305-.253.65-.454 1.036-.6.387-.148.816-.22 1.286-.22.463 0 .868.07 1.213.208.345.14.63.34.854.596.225.258.393.573.503.944.11.37.165.79.165 1.262 0 .397-.034.803-.103 1.22-.07.414-.178.813-.326 1.195-.147.383-.33.743-.557 1.08-.224.34-.487.634-.788.884-.302.25-.645.447-1.032.59-.386.144-.814.215-1.285.215zm5.41-8.06c.264-.045.55-.067.86-.067.147 0 .286.002.42.006.13.002.264.022.396.06l.022 5.767 2.283-5.767c.152-.03.29-.048.412-.055.12-.008.248-.01.38-.01.11 0 .224.002.342.01.117.008.24.026.364.055l.264 5.912 2.084-5.912c.132-.03.267-.048.403-.055.136-.008.266-.01.39-.01.126 0 .258.005.398.016.14.01.268.028.385.05l-3.198 7.93c-.14.02-.283.04-.43.05-.147.01-.287.016-.42.016-.27 0-.565-.023-.882-.067l-.286-5.108-2.14 5.107-.387.032c-.19.022-.375.033-.552.033-.212 0-.45-.023-.716-.067l-.397-7.93h.002zm9.105 6.308c.28.103.565.19.855.264.29.074.572.11.844.11.228 0 .44-.025.634-.077.195-.052.364-.13.507-.232.144-.103.256-.228.337-.375.08-.147.12-.32.12-.518 0-.147-.032-.276-.098-.386-.066-.112-.15-.21-.254-.3-.103-.088-.224-.17-.364-.247-.14-.078-.28-.16-.42-.25-.47-.278-.843-.567-1.118-.864-.276-.3-.414-.65-.414-1.054 0-.4.07-.754.21-1.066.14-.31.338-.574.595-.787.257-.214.568-.378.932-.49.362-.115.772-.172 1.23-.172.402 0 .752.03 1.046.09.294.058.603.15.926.275-.03.198-.08.408-.154.63-.075.22-.178.436-.31.65-.213-.104-.432-.188-.657-.255-.223-.066-.515-.1-.875-.1-.133 0-.274.012-.425.034-.15.02-.287.063-.408.126-.12.063-.222.15-.303.26-.08.11-.12.254-.12.43 0 .25.09.456.27.618.18.162.41.323.69.485.25.14.48.28.693.42.213.14.4.29.562.45.162.163.29.345.38.546.093.203.14.436.14.7 0 .376-.07.736-.205 1.082-.135.345-.345.647-.628.904-.283.258-.642.463-1.075.618-.434.154-.95.23-1.544.23-.69 0-1.372-.127-2.04-.385.028-.22.082-.444.16-.668.076-.224.17-.458.28-.7zm7.26-6.298c.28-.05.552-.077.816-.077.123 0 .254.005.39.017.136.01.274.03.413.06l-.54 3.1h2.393l.54-3.1c.148-.03.29-.05.425-.06.138-.012.268-.017.393-.017s.257.005.397.017c.14.01.277.03.41.06l-1.39 7.92c-.287.043-.563.065-.828.065-.264 0-.53-.023-.794-.067l.596-3.43h-2.394l-.595 3.43c-.302.044-.577.066-.827.066-.265 0-.53-.023-.794-.067l1.39-7.92v.003zm7.347 0c.278-.05.55-.077.815-.077.125 0 .255.005.39.017.138.01.275.03.415.06l-1.39 7.92c-.3.043-.577.065-.827.065-.265 0-.53-.023-.794-.067l1.39-7.92v.002zm4.242 4.026c.096.022.26.033.496.033.177 0 .357-.03.54-.09.185-.058.354-.157.508-.297.155-.14.28-.324.38-.552.1-.227.15-.513.15-.86 0-.212-.035-.39-.105-.53-.07-.14-.16-.246-.274-.324-.114-.077-.24-.13-.38-.16s-.276-.044-.41-.044h-.164c-.05 0-.132.008-.242.022l-.496 2.802h-.002zm-.893-4.06c.16-.014.31-.028.45-.043.14-.015.277-.028.414-.04.136-.01.272-.017.408-.02.136-.004.284-.006.446-.006.315 0 .646.03.992.09.345.058.662.17.948.335.287.165.524.4.712.7.187.302.28.692.28 1.17 0 .463-.078.893-.236 1.29-.158.397-.388.74-.69 1.03-.3.292-.67.518-1.102.68-.434.16-.927.242-1.478.242-.118 0-.213-.002-.287-.005-.075-.005-.144-.01-.21-.018l-.442 2.548c-.147.022-.287.037-.42.044-.13.008-.26.01-.385.01-.11 0-.233-.002-.37-.01-.135-.008-.28-.022-.435-.044l1.4-7.952.004-.002zm9.584 7.214c.345 0 .64-.094.887-.28.25-.19.45-.426.603-.713.155-.285.27-.596.342-.93.074-.335.11-.65.11-.943 0-.42-.093-.74-.28-.96-.188-.22-.454-.33-.8-.33-.346 0-.64.095-.882.286-.243.19-.44.43-.596.717-.154.287-.266.597-.336.932-.07.333-.104.644-.104.93 0 .42.09.74.27.96.18.22.443.33.79.33h-.002zm-.11.87c-.683 0-1.198-.187-1.544-.566-.346-.378-.52-.913-.52-1.604 0-.405.063-.83.188-1.274.125-.446.318-.85.58-1.214.26-.364.588-.666.98-.905.394-.238.86-.357 1.396-.357.69 0 1.21.19 1.555.573.344.383.517.92.517 1.61 0 .412-.063.84-.188 1.28-.126.44-.317.844-.574 1.208-.257.364-.585.664-.982.9-.397.235-.867.352-1.412.352h.002zm5.046-4.917h-.915c0-.148.01-.29.028-.425.018-.136.057-.285.116-.447h.913l.055-.32c.124-.74.37-1.297.733-1.664.365-.368.878-.552 1.54-.552.192 0 .357.013.497.04.14.025.268.056.386.093-.045.192-.09.352-.138.48-.048.13-.11.263-.182.403-.08-.03-.166-.055-.254-.077-.09-.022-.19-.033-.31-.033-.154 0-.294.02-.42.06-.124.04-.236.11-.335.21-.1.1-.186.235-.26.408-.073.174-.132.393-.176.657-.016.052-.027.102-.034.15-.008.047-.018.097-.033.148h1.357c0 .155-.008.298-.027.43-.018.133-.057.28-.116.442h-1.356l-.85 4.82c-.086.492-.194.907-.323 1.246-.13.338-.29.613-.48.82-.19.21-.413.36-.667.454-.255.092-.55.138-.89.138-.16 0-.315-.013-.462-.038-.147-.026-.276-.06-.386-.105.03-.17.066-.32.11-.458.044-.136.103-.27.177-.402.07.03.154.054.246.072.092.02.186.028.28.028.17 0 .323-.022.46-.066.135-.045.254-.133.357-.265.103-.134.197-.32.282-.56.084-.24.16-.55.226-.93l.85-4.754v-.003zm6.32-3.133c.28-.05.55-.077.816-.077.125 0 .255.005.39.017.137.01.275.03.415.06l-1.387 7.92c-.302.043-.578.065-.828.065-.265 0-.53-.023-.794-.067l1.39-7.92v.002zm3.338-.01c.125-.03.245-.05.36-.056.113-.008.22-.01.324-.01.22 0 .44.02.662.065l1.952 5.04.872-5.04c.264-.045.525-.067.782-.067.118 0 .232.003.343.01.11.01.22.027.33.056l-1.4 7.93c-.257.043-.482.065-.673.065-.206 0-.423-.023-.65-.067l-1.964-5.03-.87 5.03c-.126.022-.253.04-.382.05-.13.01-.255.016-.38.016-.236 0-.467-.023-.695-.067l1.387-7.93v.002zm7.798 6.65c.133.022.317.033.552.033.42 0 .8-.085 1.14-.254.343-.17.64-.405.89-.707.25-.3.442-.662.578-1.08.136-.42.204-.883.204-1.39 0-.34-.046-.634-.138-.888-.092-.255-.217-.463-.375-.624-.158-.16-.347-.282-.568-.363-.22-.08-.457-.122-.707-.122-.155 0-.272.003-.353.006-.08.004-.172.014-.275.03l-.95 5.36zm-.452-6.64c.294-.037.596-.07.905-.1.307-.028.634-.043.98-.043.565 0 1.074.074 1.527.22.452.148.836.36 1.152.635.315.276.56.614.727 1.015.17.4.254.855.254 1.362 0 .794-.124 1.5-.374 2.117-.25.618-.6 1.136-1.048 1.555-.45.42-.984.74-1.606.96-.62.22-1.3.33-2.035.33-.42 0-.765-.013-1.037-.038-.272-.026-.552-.057-.84-.094l1.39-7.92h.004zm7.56-.01h4.347c0 .03.004.06.007.087.003.03.006.06.006.09 0 .19-.022.386-.066.584-.044.2-.107.4-.188.608h-2.736l-.298 1.72h2.173c0 .442-.08.902-.244 1.38h-2.173l-.375 2.095h2.813c0 .03.003.057.006.083.004.026.006.053.006.083 0 .2-.023.395-.07.59-.048.195-.105.4-.172.612h-4.422l1.39-7.93-.003-.003zm6.743 4.036c.096.022.26.033.497.033.176 0 .356-.03.54-.09.184-.058.353-.157.507-.297.157-.14.283-.324.383-.552.1-.227.15-.513.15-.86 0-.212-.036-.39-.106-.53s-.162-.246-.276-.324c-.113-.077-.24-.13-.38-.16s-.275-.044-.41-.044h-.163c-.052 0-.132.008-.242.022l-.497 2.802zm-.893-4.06c.16-.014.312-.028.452-.043.14-.015.277-.028.414-.04.136-.01.272-.017.408-.02.136-.004.284-.006.446-.006.316 0 .647.03.993.09.345.058.662.17.948.335.287.165.524.4.712.7.187.302.28.692.28 1.17 0 .463-.078.893-.236 1.29-.156.397-.386.74-.69 1.03-.3.292-.667.518-1.1.68-.434.16-.927.242-1.48.242-.116 0-.212-.002-.285-.005-.074-.005-.143-.01-.21-.018l-.44 2.548c-.148.022-.288.037-.42.044-.132.008-.26.01-.386.01-.11 0-.234-.002-.37-.01-.136-.008-.28-.022-.436-.044l1.4-7.952v-.002zm6.386.023h4.346c0 .03.002.06.005.087.006.03.008.06.008.09 0 .19-.022.386-.066.584-.043.2-.106.4-.187.608h-2.735l-.298 1.72h2.173c0 .442-.08.902-.243 1.38h-2.172l-.375 2.095h2.812c0 .03.002.057.006.083.004.026.006.053.006.083 0 .2-.024.395-.07.59-.05.195-.107.4-.173.612h-4.423l1.39-7.93-.004-.003zm5.838 0c.125-.03.245-.05.36-.056.112-.008.22-.01.324-.01.22 0 .44.02.662.065l1.952 5.04.87-5.04c.266-.045.527-.067.784-.067.118 0 .232.003.342.01.11.01.22.027.33.056l-1.4 7.93c-.257.043-.48.065-.672.065-.206 0-.423-.023-.65-.067l-1.964-5.03-.872 5.03c-.125.022-.25.04-.38.05-.13.01-.256.016-.38.016-.236 0-.468-.023-.695-.067l1.387-7.93v.002zm7.798 6.65c.132.022.316.033.55.033.42 0 .8-.085 1.143-.254.34-.17.636-.405.886-.707.25-.3.443-.662.58-1.08.135-.42.203-.883.203-1.39 0-.34-.047-.634-.14-.888-.09-.255-.216-.463-.374-.624-.158-.16-.347-.282-.568-.363-.222-.08-.457-.122-.707-.122-.153 0-.27.003-.352.006-.08.004-.172.014-.276.03l-.948 5.36h.002zm-.452-6.64c.294-.037.595-.07.904-.1.31-.028.636-.043.982-.043.566 0 1.075.074 1.527.22.452.148.836.36 1.153.635.316.276.56.614.728 1.015.17.4.254.855.254 1.362 0 .794-.125 1.5-.375 2.117-.25.618-.6 1.136-1.048 1.555-.45.42-.986.74-1.607.96-.62.22-1.3.33-2.035.33-.42 0-.766-.013-1.038-.038-.272-.026-.55-.057-.838-.094l1.39-7.92h.002zm7.56-.01h4.346c0 .03.002.06.006.087.003.03.005.06.005.09 0 .19-.02.386-.064.584-.044.2-.106.4-.187.608h-2.736l-.298 1.72h2.172c0 .442-.08.902-.242 1.38h-2.173l-.375 2.095h2.812c0 .03.002.057.005.083.003.026.006.053.006.083 0 .2-.022.395-.07.59-.05.195-.105.4-.17.612h-4.424l1.39-7.93V61.3zm5.838 0c.125-.03.245-.05.36-.056.113-.008.22-.01.324-.01.22 0 .44.02.662.065l1.952 5.04.87-5.04c.266-.045.527-.067.784-.067.118 0 .232.003.342.01.11.01.22.027.33.056l-1.4 7.93c-.257.043-.48.065-.672.065-.206 0-.423-.023-.65-.067l-1.964-5.03-.87 5.03c-.126.022-.253.04-.382.05-.13.01-.255.016-.38.016-.236 0-.467-.023-.695-.067l1.39-7.93v.002zm8.428 1.366h-1.876c0-.227.02-.453.06-.678.04-.224.102-.454.182-.69h5.372c0 .23-.02.453-.06.674-.04.22-.102.452-.183.695h-1.875l-1.147 6.563c-.3.044-.577.066-.827.066-.265 0-.53-.023-.794-.067l1.147-6.563zm7.276-1.367h4.345c0 .03.005.06.008.087.003.03.006.06.006.09 0 .19-.022.386-.066.584-.045.2-.107.4-.188.608h-2.736l-.298 1.72h2.173c0 .442-.084.902-.245 1.38h-2.173l-.375 2.095h2.813c0 .03.003.057.006.083.004.026.006.053.006.083 0 .2-.024.395-.072.59-.047.195-.104.4-.17.612h-4.423l1.39-7.93V61.3zm5.044 0c.294-.045.592-.067.893-.067.257 0 .526.022.805.066l.508 6.23 2.724-6.23c.264-.045.544-.067.838-.067.286 0 .57.022.85.066l-3.762 7.93c-.33.043-.654.065-.97.065-.148 0-.29-.006-.43-.017-.14-.012-.295-.028-.464-.05l-.992-7.93zm10.237 5.006l-.287-3.176-1.412 3.176h1.7zm-.916-5.007c.15-.023.306-.04.47-.05.166-.01.323-.017.47-.017.3 0 .603.022.904.066l.97 7.93c-.28.043-.547.065-.804.065-.26 0-.534-.023-.83-.067l-.142-1.6h-2.415l-.706 1.6c-.265.044-.54.066-.828.066-.28 0-.546-.023-.796-.067l3.706-7.93v.002zm5.26 0c.125-.03.245-.05.358-.056.114-.008.223-.01.326-.01.22 0 .44.02.662.065l1.952 5.04.87-5.04c.266-.045.527-.067.784-.067.118 0 .232.003.342.01.11.01.22.027.33.056l-1.4 7.93c-.257.043-.48.065-.672.065-.206 0-.423-.023-.65-.067l-1.964-5.03-.872 5.03c-.125.022-.25.04-.38.05-.13.01-.256.016-.38.016-.236 0-.468-.023-.696-.067l1.39-7.93v.002zm10.787 3.826c.147-.03.286-.05.42-.06.13-.012.26-.017.385-.017s.255.005.39.015c.137.01.272.03.404.06l-.695 3.927c-.32.11-.685.19-1.09.236-.404.048-.783.072-1.136.072-.536 0-1.007-.077-1.412-.23-.403-.156-.74-.37-1.013-.64-.273-.273-.477-.595-.613-.966-.136-.372-.204-.775-.204-1.21 0-.712.107-1.38.32-2.006.214-.625.513-1.17.9-1.638.385-.467.85-.834 1.395-1.103.544-.268 1.146-.402 1.808-.402.346 0 .655.023.927.067.272.044.547.13.827.254-.044.23-.1.442-.17.64-.07.2-.168.416-.293.65-.228-.095-.438-.157-.63-.186-.19-.03-.378-.045-.562-.045-.492 0-.913.106-1.262.32-.35.212-.636.49-.86.832-.225.342-.39.73-.497 1.164-.107.434-.16.87-.16 1.313 0 .64.156 1.095.47 1.367.31.272.725.41 1.24.41.103 0 .216-.007.34-.018.126-.01.222-.024.288-.04l.487-2.767h-.003zm3.818-3.827h4.345c0 .03.003.06.006.087.004.03.006.06.006.09 0 .19-.022.386-.067.584-.044.2-.106.4-.187.608h-2.735l-.298 1.72h2.172c0 .442-.08.902-.242 1.38h-2.173l-.375 2.095h2.813c0 .03.002.057.005.083.004.026.006.053.006.083 0 .2-.022.395-.07.59-.047.195-.104.4-.17.612h-4.423l1.39-7.93-.002-.003zm5.837 0c.28-.05.552-.078.817-.078.255 0 .512.026.77.077l-1.147 6.54h2.602c0 .124-.007.244-.02.36l-.045.323c-.022.118-.048.233-.077.347-.03.114-.062.234-.1.36h-4.19l1.39-7.93zm5.386.01c.28-.05.55-.077.816-.077.125 0 .255.005.392.017.136.01.274.03.413.06l-1.39 7.92c-.303.043-.578.065-.83.065-.263 0-.53-.023-.792-.067l1.388-7.92.002.002zm7.034 6.42c.08.19.145.404.193.64.047.234.08.466.094.693-.164.067-.337.12-.52.16-.185.04-.363.07-.536.09-.173.017-.334.03-.485.037-.15.008-.27.012-.36.012-.536 0-1.005-.074-1.406-.22-.4-.148-.735-.356-1.003-.624-.27-.27-.47-.59-.6-.96-.133-.37-.2-.785-.2-1.24 0-.714.108-1.383.32-2.008.214-.625.514-1.17.9-1.638.386-.466.85-.834 1.395-1.102.544-.27 1.147-.403 1.81-.403.344 0 .65.02.92.062.268.04.546.125.832.26-.044.226-.1.44-.17.637-.07.2-.168.416-.293.65-.25-.094-.47-.157-.656-.186-.19-.03-.367-.043-.536-.043-.493 0-.915.106-1.268.32-.353.212-.642.49-.866.832-.225.34-.39.73-.496 1.163-.107.433-.16.87-.16 1.312 0 .603.156 1.05.468 1.346.313.295.76.44 1.34.44.11 0 .213 0 .31-.01.095-.007.19-.02.286-.032.096-.014.198-.038.31-.07l.374-.117h.002zm5.252-1.424l-.286-3.176-1.412 3.176h1.698zm-.915-5.007c.145-.023.3-.04.467-.05.165-.01.32-.017.47-.017.3 0 .6.022.903.066l.97 7.93c-.278.043-.546.065-.804.065-.257 0-.533-.023-.827-.067l-.145-1.6h-2.416l-.706 1.6c-.265.044-.54.066-.828.066-.28 0-.544-.023-.794-.067l3.706-7.93v.002zm5.258 0c.28-.05.55-.078.816-.078.257 0 .515.026.772.077l-1.147 6.54h2.6c0 .124-.007.244-.02.36l-.045.323c-.023.118-.048.233-.078.347-.03.114-.062.234-.1.36h-4.19l1.39-7.93zm11.385 6.43c.08.19.145.404.193.64.048.234.08.466.094.693-.162.067-.335.12-.52.16-.183.04-.36.07-.534.09-.173.017-.334.03-.485.037-.15.008-.27.012-.356.012-.537 0-1.006-.074-1.406-.22-.4-.148-.736-.356-1.004-.624-.268-.27-.47-.59-.6-.96-.134-.37-.2-.785-.2-1.24 0-.714.107-1.383.32-2.008.213-.625.513-1.17.9-1.638.385-.466.85-.834 1.394-1.102.544-.27 1.147-.403 1.81-.403.344 0 .65.02.92.062.268.04.546.125.833.26-.044.226-.1.44-.17.637-.07.2-.17.416-.293.65-.25-.094-.468-.157-.656-.186-.187-.03-.365-.043-.534-.043-.493 0-.915.106-1.268.32-.353.212-.642.49-.866.832-.223.34-.39.73-.495 1.163-.107.433-.16.87-.16 1.312 0 .603.156 1.05.468 1.346.313.295.76.44 1.34.44.11 0 .214 0 .31-.01.095-.007.19-.02.286-.032.096-.014.198-.038.31-.07l.374-.117zm2.617-6.42c.28-.05.55-.077.816-.077.125 0 .255.005.39.017.137.01.275.03.415.06l-.54 3.1h2.395l.54-3.1c.147-.03.29-.05.425-.06.135-.012.266-.017.39-.017.126 0 .258.005.398.017.14.01.275.03.408.06l-1.39 7.92c-.287.043-.563.065-.827.065-.267 0-.53-.023-.796-.067l.595-3.43h-2.394l-.596 3.43c-.3.044-.576.066-.826.066-.265 0-.53-.023-.794-.067l1.39-7.92v.003zm7.29-.01c.147-.03.29-.05.425-.056.136-.008.27-.01.402-.01.125 0 .252.002.38.01.13.008.264.026.403.055l-.716 4.113c-.052.3-.092.57-.122.805-.03.235-.044.45-.044.64 0 .382.07.663.21.843.14.18.385.27.74.27.27 0 .5-.05.683-.147.185-.1.34-.254.47-.463.13-.21.235-.475.32-.794.085-.32.167-.705.248-1.153l.717-4.114c.162-.03.307-.05.436-.056.13-.008.256-.01.38-.01.134 0 .266.002.398.01.133.008.27.026.408.055l-.783 4.455c-.103.587-.23 1.105-.386 1.554-.154.447-.364.822-.628 1.124-.266.3-.6.53-1 .688-.4.158-.89.237-1.47.237-.803 0-1.4-.185-1.79-.55-.39-.37-.583-.97-.583-1.8 0-.368.04-.787.12-1.257l.784-4.457v.003zm7.422.01c.31-.06.594-.097.855-.116.26-.018.528-.027.8-.027.375 0 .74.032 1.092.095.35.062.667.172.946.33.28.158.504.375.673.65.17.277.252.624.252 1.043 0 .338-.05.643-.15.916-.098.273-.223.517-.373.734-.15.217-.316.4-.49.552-.18.15-.348.273-.51.368l-.13.077 1.18 3.3c-.31.043-.608.065-.895.065-.287 0-.555-.023-.805-.067l-1.223-3.684.187-.11c.11-.067.254-.146.43-.238.177-.092.35-.213.52-.364.168-.15.313-.333.434-.546.122-.213.182-.47.182-.772 0-.19-.033-.35-.1-.48-.065-.13-.155-.233-.27-.314-.113-.08-.244-.138-.39-.17-.148-.034-.3-.05-.453-.05-.155 0-.28.01-.375.032l-1.18 6.695-.413.04c-.13.01-.258.015-.383.015-.118 0-.247-.003-.386-.01-.14-.01-.28-.023-.42-.045l1.39-7.92.002.003zm10.2 6.42c.08.19.146.404.193.64.048.234.08.466.094.693-.163.067-.336.12-.52.16-.184.04-.36.07-.535.09-.173.017-.335.03-.485.037-.15.008-.27.012-.358.012-.536 0-1.005-.074-1.406-.22-.4-.148-.735-.356-1.003-.624-.27-.27-.47-.59-.6-.96-.134-.37-.2-.785-.2-1.24 0-.714.107-1.383.32-2.008.213-.625.513-1.17.9-1.638.385-.466.85-.834 1.394-1.102.544-.27 1.147-.403 1.808-.403.346 0 .653.02.922.062.268.04.545.125.832.26-.046.226-.103.44-.173.637-.07.2-.167.416-.292.65-.25-.094-.47-.157-.656-.186-.19-.03-.367-.043-.536-.043-.493 0-.915.106-1.268.32-.353.212-.642.49-.866.832-.224.34-.39.73-.495 1.163-.107.433-.16.87-.16 1.312 0 .603.156 1.05.468 1.346.313.295.76.44 1.34.44.11 0 .213 0 .31-.01.095-.007.19-.02.286-.032.093-.014.196-.038.307-.07l.375-.117zm2.618-6.42c.28-.05.55-.077.816-.077.125 0 .255.005.39.017.137.01.275.03.415.06l-.54 3.1h2.394l.54-3.1c.148-.03.29-.05.426-.06.135-.012.265-.017.39-.017s.258.005.397.017c.14.01.276.03.408.06l-1.39 7.92c-.286.043-.562.065-.826.065-.267 0-.53-.023-.797-.067l.596-3.43h-2.394l-.596 3.43c-.3.044-.576.066-.826.066-.265 0-.53-.023-.794-.067l1.39-7.92v.003zm7.345-.01h4.345c0 .03.003.06.006.087.003.03.006.06.006.09 0 .19-.022.386-.067.584-.044.2-.106.4-.187.608h-2.735l-.298 1.72h2.173c0 .442-.08.902-.243 1.38h-2.173l-.375 2.095h2.813c0 .03.002.057.005.083.004.026.006.053.006.083 0 .2-.022.395-.07.59-.047.195-.104.4-.17.612h-4.423l1.39-7.93-.002-.003zm4.437 6.308c.28.103.564.19.855.264.29.074.57.11.843.11.228 0 .44-.025.635-.077s.364-.13.507-.232c.144-.103.256-.228.337-.375.08-.147.12-.32.12-.518 0-.147-.034-.276-.1-.386-.067-.112-.15-.21-.254-.3-.103-.088-.225-.17-.364-.247-.14-.078-.28-.16-.42-.25-.47-.278-.843-.567-1.12-.864-.274-.3-.412-.65-.412-1.054 0-.4.07-.754.21-1.066.14-.31.338-.574.596-.787.257-.214.568-.378.932-.49.364-.115.774-.172 1.23-.172.404 0 .753.03 1.047.09.294.058.603.15.927.275-.03.198-.08.408-.155.63-.073.22-.176.436-.31.65-.212-.104-.43-.188-.655-.255-.224-.066-.516-.1-.876-.1-.133 0-.275.012-.425.034-.15.02-.285.063-.406.126-.122.063-.223.15-.304.26-.08.11-.122.254-.122.43 0 .25.09.456.27.618.18.162.41.323.69.485.25.14.48.28.695.42.213.14.4.29.562.45.162.163.288.345.38.546.092.203.138.436.138.7 0 .376-.068.736-.204 1.082-.138.345-.347.647-.63.904-.283.258-.64.463-1.076.618-.434.154-.948.23-1.544.23-.69 0-1.37-.127-2.04-.385.03-.22.084-.444.16-.668.078-.224.172-.458.282-.7zM17.675 30.646c-.823-.212-1.876-.318-3.157-.32-1.556.002-3.012.344-4.37 1.03-1.357.687-2.54 1.64-3.545 2.86-1.007 1.22-1.8 2.655-2.38 4.302-.58 1.647-.87 3.43-.87 5.352 0 1.74.32 3.104.962 4.096.64.99 1.57 1.487 2.79 1.487 1.13 0 2.204-.366 3.226-1.098 1.024-.734 1.947-1.71 2.77-2.93.824-1.22 1.533-2.624 2.128-4.21.595-1.586 1.06-3.233 1.396-4.94l1.052-5.63zm1.007 11.12c-.306 1.738-.573 3.21-.8 4.415-.23 1.206-.344 2.357-.344 3.456 0 .426.008.77.023 1.03.017.26.055.556.116.89-.183.032-.434.055-.754.07-.32.015-.587.023-.8.023-.183 0-.435-.01-.755-.024-.32-.015-.558-.038-.71-.07-.09-.76-.137-1.524-.137-2.286 0-.214.015-.474.046-.78.03-.303.076-.63.137-.982.062-.35.13-.694.207-1.03.077-.336.145-.64.205-.915-.274.64-.678 1.335-1.212 2.082-.534.746-1.182 1.455-1.944 2.127-.764.67-1.618 1.228-2.564 1.67-.946.442-1.983.663-3.11.663-2.014 0-3.54-.68-4.576-2.036C.672 48.71.154 46.812.154 44.37c0-2.074.33-4.11.985-6.108.654-1.998 1.623-3.783 2.904-5.354 1.282-1.57 2.876-2.837 4.782-3.798 1.907-.96 4.11-1.44 6.612-1.44.945 0 1.95.083 3.018.25 1.068.17 1.922.375 2.563.62L18.68 41.766zm10.934-10.982h-3.798c0-.426.023-.845.07-1.257.044-.41.16-.846.342-1.304h3.798l.366-2.058c.518-2.868 1.448-5.018 2.79-6.452 1.342-1.434 3.294-2.15 5.857-2.15.673 0 1.268.045 1.787.136.518.09.945.213 1.28.366-.152.61-.304 1.08-.457 1.417-.153.336-.32.717-.504 1.144-.305-.12-.633-.227-.983-.32-.352-.09-.77-.137-1.26-.137-.73 0-1.387.092-1.967.275-.58.183-1.09.503-1.532.96-.442.458-.83 1.083-1.167 1.876-.335.794-.61 1.8-.824 3.02l-.366 1.923h6.085c0 .427-.023.847-.068 1.26-.046.41-.16.845-.342 1.302h-6.087L28.563 54.12c-.518 3.05-1.45 5.247-2.79 6.59-1.343 1.34-3.295 2.012-5.857 2.012-.67 0-1.266-.046-1.785-.137-.516-.09-.943-.213-1.28-.366.153-.61.298-1.083.435-1.42.138-.335.298-.716.48-1.143.306.122.64.22 1.008.297.366.077.793.115 1.28.115.733 0 1.397-.078 1.992-.23.595-.153 1.113-.443 1.555-.87.44-.426.823-1.044 1.143-1.852.32-.808.587-1.852.8-3.133l4.073-23.2zm14.566 0h-3.797c0-.426.022-.845.068-1.257.046-.41.16-.846.343-1.304h3.798l.366-2.058c.52-2.868 1.45-5.018 2.79-6.452 1.343-1.434 3.295-2.15 5.858-2.15.67 0 1.266.045 1.784.136.52.09.945.213 1.28.366-.15.61-.303 1.08-.456 1.417-.153.336-.32.717-.504 1.144-.304-.12-.632-.227-.983-.32-.353-.09-.773-.137-1.26-.137-.733 0-1.39.092-1.968.275-.58.183-1.09.503-1.533.96-.443.458-.83 1.083-1.167 1.876-.336.794-.61 1.8-.825 3.02l-.367 1.923h6.086c0 .427-.023.847-.068 1.26-.046.41-.16.845-.342 1.302H47.2L43.13 54.12c-.52 3.05-1.45 5.247-2.792 6.59-1.342 1.34-3.294 2.012-5.856 2.012-.67 0-1.266-.046-1.784-.137-.52-.09-.946-.213-1.282-.366.152-.61.297-1.083.435-1.42.14-.335.3-.716.483-1.143.304.122.64.22 1.006.297.365.077.792.115 1.28.115.733 0 1.396-.078 1.99-.23.596-.153 1.115-.443 1.557-.87.442-.426.823-1.044 1.143-1.852.32-.808.586-1.852.8-3.133l4.072-23.2zm14.428-8.282c.03-.274.07-.61.115-1.006.046-.397.1-.732.16-1.006.062-.245.13-.55.207-.916.076-.365.144-.67.206-.914.274-.03.61-.054 1.007-.07.396-.014.73-.022 1.006-.022.246 0 .55.008.917.023.366.016.67.04.914.07-.03.244-.06.55-.09.914-.03.366-.076.67-.136.916-.062.274-.138.61-.23 1.006s-.168.732-.228 1.006c-.244.03-.55.054-.916.07-.367.015-.672.023-.916.023-.275 0-.61-.01-1.007-.024-.396-.015-.732-.04-1.006-.07v.002zm.093 8.282h-2.838c0-.426.04-.853.115-1.28.076-.428.175-.855.297-1.282h5.858l-4.073 23.334c-.182.032-.442.055-.777.07-.336.016-.61.023-.825.023-.182 0-.426-.01-.73-.024-.307-.015-.536-.038-.688-.07l3.66-20.772zm11.695-3.065c.306-1.74.565-3.234.78-4.485.212-1.252.32-2.426.32-3.525v-.96c0-.213-.016-.488-.047-.823.186-.03.45-.054.803-.07.35-.014.633-.022.847-.022h.73c.306 0 .534.016.686.046.03.336.046.634.046.893v.754c0 .367-.03.825-.09 1.374-.062.55-.13 1.13-.207 1.74-.076.61-.168 1.227-.275 1.852-.106.625-.205 1.182-.296 1.67l-3.57 19.995c-.09.458-.138.854-.138 1.19 0 .488.07.87.207 1.144.137.275.312.48.526.618.21.137.44.22.684.252.244.03.488.046.732.046.367 0 .74-.03 1.122-.09.38-.06.677-.123.89-.184.122.336.206.725.252 1.167.047.44.054.845.023 1.21-.458.154-.99.268-1.6.345-.61.075-1.145.113-1.603.113-.55 0-1.083-.053-1.6-.16-.52-.106-.985-.297-1.397-.572-.412-.273-.74-.655-.984-1.143s-.365-1.098-.365-1.83c0-.396.045-.87.136-1.418l3.387-19.127zM83.454 22.5c.03-.274.07-.61.115-1.006.043-.397.097-.732.16-1.006.06-.245.13-.55.204-.916.076-.365.145-.67.206-.914.276-.03.61-.054 1.008-.07.396-.014.732-.022 1.007-.022.243 0 .548.008.914.023.364.016.67.04.913.07-.03.244-.06.55-.09.914-.032.366-.077.67-.138.916-.06.274-.138.61-.23 1.006-.09.396-.168.732-.228 1.006-.244.03-.55.054-.915.07-.367.015-.672.023-.916.023-.274 0-.61-.01-1.006-.024-.396-.015-.73-.04-1.006-.07v.002zm.092 8.282H80.71c0-.426.037-.853.113-1.28.077-.428.176-.855.298-1.282h5.86l-4.075 23.334c-.182.032-.44.055-.777.07-.335.016-.61.023-.824.023-.183 0-.427-.01-.732-.024-.305-.015-.534-.038-.687-.07l3.66-20.772zm25.102-.138c-.823-.212-1.876-.318-3.157-.32-1.554.002-3.01.344-4.367 1.03-1.357.687-2.54 1.64-3.546 2.86-1.007 1.22-1.8 2.655-2.38 4.302-.58 1.647-.87 3.43-.87 5.352 0 1.74.32 3.104.962 4.096.64.99 1.57 1.487 2.79 1.487 1.13 0 2.203-.366 3.226-1.098 1.022-.734 1.944-1.71 2.768-2.93.823-1.22 1.532-2.624 2.127-4.21.596-1.586 1.06-3.233 1.398-4.94l1.05-5.63zm1.007 11.12c-.306 1.738-.573 3.21-.8 4.415-.23 1.206-.344 2.357-.344 3.456 0 .426.01.77.025 1.03.015.26.053.556.114.89-.184.032-.435.055-.755.07-.32.015-.587.023-.802.023-.182 0-.434-.01-.754-.024-.32-.015-.558-.038-.71-.07-.09-.76-.138-1.524-.138-2.286 0-.214.016-.474.047-.78.03-.303.076-.63.136-.982.06-.35.13-.694.206-1.03.077-.336.145-.64.206-.915-.275.64-.68 1.335-1.213 2.082-.534.746-1.182 1.455-1.944 2.127-.763.67-1.617 1.228-2.563 1.67-.945.442-1.983.663-3.11.663-2.014 0-3.54-.68-4.576-2.036-1.037-1.358-1.555-3.257-1.555-5.698 0-2.074.328-4.11.984-6.108.654-1.998 1.623-3.783 2.905-5.354 1.28-1.57 2.875-2.837 4.78-3.798 1.908-.96 4.11-1.44 6.613-1.44.945 0 1.95.083 3.02.25 1.066.17 1.92.375 2.56.62l-2.332 13.222v.002zm10.568-10.982h-3.798c0-.426.023-.845.07-1.257.044-.41.16-.846.342-1.304h3.797c.152-.793.282-1.64.39-2.54.106-.9.16-1.928.16-3.087v-.505c.488-.15 1.02-.273 1.6-.365.58-.092 1.038-.138 1.374-.138.03.335.045.632.045.892v.755c0 .58-.06 1.333-.183 2.264-.122.93-.26 1.837-.412 2.72h6.04c0 .428-.023.848-.07 1.26-.045.41-.16.846-.34 1.303h-5.996l-2.7 15.19c-.06.215-.09.42-.09.62v.526c0 1.005.274 1.64.823 1.897.55.26 1.16.39 1.83.39 1.007 0 1.953-.154 2.838-.46.06.397.098.802.113 1.213.016.412.008.878-.023 1.396-1.158.336-2.47.504-3.934.504-1.436 0-2.587-.336-3.457-1.006-.87-.67-1.304-1.785-1.304-3.34 0-.458.045-.99.136-1.6l2.746-15.33zm17.075 8.008c3.08-.49 5.482-1.175 7.205-2.06 1.724-.884 2.586-2.12 2.586-3.705 0-.823-.29-1.487-.87-1.99-.58-.503-1.435-.755-2.565-.755-1.097 0-2.12.252-3.064.755-.945.503-1.807 1.167-2.585 1.99-.777.824-1.448 1.778-2.013 2.86-.564 1.083-.983 2.19-1.258 3.318l2.563-.412zm-2.975 3.614c0 2.197.534 3.92 1.6 5.17 1.068 1.252 2.76 1.877 5.08 1.877.58 0 1.19-.046 1.83-.138.64-.092 1.25-.207 1.83-.344.58-.136 1.13-.28 1.648-.434.52-.152.96-.29 1.328-.41.153.335.267.74.344 1.212.077.473.115.893.115 1.258-.427.183-.953.366-1.578.55-.626.183-1.29.343-1.99.48-.704.138-1.42.252-2.153.343-.732.09-1.418.136-2.06.136-1.737 0-3.193-.244-4.368-.732-1.175-.487-2.12-1.15-2.838-1.99-.717-.84-1.228-1.816-1.533-2.93-.305-1.112-.458-2.294-.458-3.544 0-1.86.32-3.7.96-5.514.64-1.814 1.534-3.44 2.678-4.873 1.144-1.434 2.516-2.6 4.117-3.5 1.6-.9 3.363-1.35 5.285-1.35 2.014 0 3.532.496 4.553 1.487 1.022.992 1.533 2.19 1.533 3.592 0 1.31-.32 2.44-.96 3.386-.642.945-1.526 1.746-2.655 2.402-1.127.656-2.462 1.197-4.003 1.625-1.54.426-3.195.776-4.964 1.05l-3.34.55v.64h-.003zm36.615-11.76c-.824-.212-1.877-.318-3.157-.32-1.554.002-3.01.344-4.37 1.03-1.356.687-2.54 1.64-3.544 2.86-1.006 1.22-1.8 2.655-2.38 4.302-.58 1.647-.87 3.43-.87 5.352 0 1.74.32 3.104.962 4.096.64.99 1.57 1.487 2.79 1.487 1.13 0 2.205-.366 3.227-1.098 1.02-.734 1.944-1.71 2.768-2.93.824-1.22 1.533-2.624 2.128-4.21.596-1.586 1.06-3.233 1.396-4.94l1.053-5.63h-.002zm.96 11.12c-.305 1.738-.572 3.21-.8 4.415-.23 1.206-.343 2.357-.343 3.456 0 .426.008.77.022 1.03.015.26.053.556.115.89-.184.032-.435.055-.756.07-.32.015-.587.023-.8.023-.183 0-.435-.01-.755-.024-.32-.015-.555-.038-.707-.07-.06-.243-.1-.487-.114-.73-.017-.245-.024-.58-.024-1.007 0-.215.015-.498.046-.848.03-.35.077-.724.138-1.12.06-.397.13-.794.206-1.19.075-.397.16-.763.25-1.1-.273.642-.677 1.336-1.21 2.083-.535.746-1.183 1.455-1.945 2.127-.763.67-1.617 1.228-2.563 1.67-.946.442-1.983.663-3.11.663-2.014 0-3.54-.68-4.577-2.036-1.038-1.358-1.556-3.257-1.556-5.698 0-2.074.328-4.11.984-6.108.655-1.998 1.624-3.783 2.905-5.354 1.28-1.57 2.874-2.837 4.78-3.798 1.907-.96 4.11-1.44 6.612-1.44.397 0 .84.022 1.327.067.49.045.916.1 1.282.16.305-1.74.572-3.264.8-4.576.23-1.31.343-2.516.343-3.615v-.96c0-.214-.015-.49-.046-.824.185-.03.453-.054.804-.07.35-.014.633-.022.846-.022h.73c.306 0 .535.015.687.046.03.335.046.632.046.892v.754c0 .367-.022.825-.068 1.374-.047.548-.115 1.12-.207 1.715l-.274 1.81c-.092.61-.183 1.158-.274 1.646l-2.792 15.695zm21.068-10.982h-3.798c0-.426.023-.845.07-1.257.044-.41.16-.846.342-1.304h3.796c.153-.793.283-1.64.39-2.54.107-.9.16-1.928.16-3.087v-.505c.49-.15 1.022-.273 1.602-.365.58-.092 1.037-.138 1.373-.138.03.335.047.632.047.892v.755c0 .58-.062 1.333-.183 2.264-.122.93-.26 1.837-.412 2.72h6.04c0 .428-.022.848-.068 1.26-.046.41-.16.846-.343 1.303h-5.994l-2.7 15.19c-.06.215-.09.42-.09.62v.526c0 1.005.273 1.64.822 1.897.55.26 1.16.39 1.83.39 1.007 0 1.953-.154 2.838-.46.06.397.1.802.114 1.213.014.412.007.878-.024 1.396-1.16.336-2.47.504-3.935.504-1.43 0-2.583-.336-3.452-1.006-.87-.67-1.304-1.785-1.304-3.34 0-.458.045-.99.137-1.6l2.747-15.33zM212.1 52.106c-2.594 0-4.6-.755-6.018-2.265-1.42-1.51-2.128-3.713-2.128-6.61 0-1.587.252-3.287.755-5.1.502-1.817 1.28-3.5 2.332-5.057 1.053-1.556 2.395-2.844 4.027-3.867 1.63-1.022 3.56-1.533 5.786-1.533 2.593 0 4.598.755 6.017 2.265 1.42 1.51 2.128 3.714 2.128 6.61 0 1.588-.25 3.288-.754 5.103-.504 1.816-1.282 3.5-2.334 5.057-1.053 1.557-2.395 2.846-4.027 3.867-1.632 1.022-3.56 1.533-5.787 1.533h.002zm.318-2.652c1.646 0 3.057-.412 4.23-1.236 1.176-.823 2.144-1.86 2.907-3.11.763-1.25 1.327-2.64 1.693-4.164.366-1.526.55-2.974.55-4.346 0-2.014-.466-3.562-1.397-4.645-.93-1.082-2.22-1.624-3.865-1.624-1.647 0-3.058.412-4.233 1.236-1.174.823-2.142 1.86-2.905 3.11-.763 1.25-1.327 2.64-1.694 4.164-.366 1.527-.55 2.975-.55 4.347 0 2.014.466 3.562 1.396 4.645.93 1.083 2.22 1.625 3.867 1.625v-.003z"/>
  </g>
</svg>
