<?xml version="1.0" encoding="UTF-8"?>
<svg width="18px" height="18px" viewBox="0 0 18 18" version="1.1" xmlns="http://www.w3.org/2000/svg" xmlns:xlink="http://www.w3.org/1999/xlink">
    <title>Outlook</title>
    <g id="Outlook" stroke="none" stroke-width="1" fill="none" fill-rule="evenodd">
        <path d="M18,5.96484506 L18,12.4360563 C18,13.140507 17.5440875,13.4359435 17.0314427,13.4359435 L11.2638416,13.4359435 L11.2638416,8.65081684 L12.3998635,9.42219711 C12.5598088,9.53847883 12.7525635,9.42219711 12.7525635,9.42219711 C12.7424545,9.4283172 12.7479454,9.42421592 12.7674222,9.41095225 L12.9440246,9.29299363 C13.8977675,8.65991928 18,5.96484506 18,5.96484506 Z M17.3759403,3.81633796 C17.6008197,3.81633796 17.9993161,4.11921115 17.9993161,4.54174644 L12.6452497,8.112 C12.6124404,8.12214118 12.5413537,8.12146475 12.5085444,8.112 L11.2645251,7.33723933 L11.2645251,3.81633796 Z M10.5946687,0 L10.5946687,18 L-1.77635684e-15,15.8028169 L-1.77635684e-15,2.02816901 L10.5946687,0 Z M5.41626805,5.85194366 C4.67600829,5.85194366 4.08133979,6.14805634 3.63226254,6.73960563 C3.1831853,7.33115493 2.95898844,8.10591549 2.95898844,9.06388732 C2.95898844,9.97115493 3.18045119,10.7067042 3.62200964,11.2718873 C4.06425162,11.8363944 4.6356802,12.1189859 5.33766244,12.1189859 C6.05809991,12.1189859 6.64183198,11.8269296 7.08954217,11.244169 C7.53725237,10.6614085 7.76144923,9.89340845 7.76076726,8.94084507 C7.76076726,8.01397183 7.54477116,7.26760563 7.11278209,6.70107042 C6.68147655,6.13453521 6.11551618,5.85194366 5.41626805,5.85194366 Z M5.38619286,7.02760563 C5.76213271,7.02760563 6.05809991,7.20202817 6.27477797,7.55087324 C6.49145604,7.90039437 6.59945331,8.3891831 6.59945331,9.01723944 C6.59945331,9.61960563 6.48735488,10.0908169 6.26452507,10.4301972 C6.04169526,10.7695775 5.73957632,10.9392676 5.35885178,10.9392676 C4.98974719,10.9392676 4.69104589,10.7655211 4.46343139,10.416 C4.2358169,10.0671549 4.12166788,9.59256338 4.12166788,8.99222535 C4.12166788,8.40067606 4.2358169,7.92540845 4.46343139,7.56642254 C4.69104589,7.20743662 4.99931657,7.02760563 5.38619286,7.02760563 Z" id="Combined-Shape" fill="#FFFFFF" fill-rule="nonzero"></path>
    </g>
</svg>