<?xml version="1.0" encoding="UTF-8"?>
<svg width="18px" height="18px" viewBox="0 0 18 18" version="1.1" xmlns="http://www.w3.org/2000/svg" xmlns:xlink="http://www.w3.org/1999/xlink">
    <title>Google Cal</title>
    <g id="Google-Cal" stroke="none" stroke-width="1" fill="none" fill-rule="evenodd">
        <path d="M6.20649,11.61234 C5.85243,11.37312 5.60727,11.02383 5.47344,10.56195 L6.29532,10.22328 C6.36993,10.5075 6.50016,10.72773 6.6861,10.88406 C6.87087,11.04039 7.09587,11.11734 7.35876,11.11734 C7.62759,11.11734 7.85853,11.03562 8.05149,10.87218 C8.24445,10.70874 8.34165,10.5003 8.34165,10.24812 C8.34165,9.99 8.23977,9.77913 8.0361,9.61578 C7.83243,9.45243 7.57665,9.37062 7.2711,9.37062 L6.79626,9.37062 L6.79626,8.55711 L7.2225,8.55711 C7.48539,8.55711 7.70688,8.4861 7.88688,8.34399 C8.06688,8.20188 8.15688,8.00766 8.15688,7.76016 C8.15688,7.53993 8.07633,7.36461 7.91532,7.23321 C7.75431,7.10181 7.55055,7.03548 7.30305,7.03548 C7.06149,7.03548 6.86961,7.09947 6.7275,7.22853 C6.58539,7.35759 6.48234,7.51626 6.41727,7.70337 L5.60376,7.3647 C5.71149,7.05915 5.90931,6.78915 6.19938,6.55587 C6.48954,6.32259 6.86016,6.20532 7.31016,6.20532 C7.64289,6.20532 7.9425,6.26931 8.20782,6.39837 C8.47305,6.52743 8.68149,6.70626 8.83188,6.9336 C8.98227,7.16211 9.05688,7.41798 9.05688,7.70211 C9.05688,7.99227 8.98704,8.23734 8.84727,8.43867 C8.7075,8.64 8.53578,8.7939 8.33211,8.90172 L8.33211,8.95023 C8.60094,9.06273 8.82,9.23445 8.99289,9.46539 C9.16461,9.69633 9.25101,9.97227 9.25101,10.29438 C9.25101,10.61649 9.16929,10.90422 9.00585,11.15649 C8.84241,11.40876 8.61624,11.60766 8.32968,11.75211 C8.04195,11.89656 7.71867,11.9700085 7.35984,11.9700085 C6.94422,11.97117 6.56055,11.85156 6.20649,11.61234 Z M11.25,7.53399 L10.35234,8.18649 L9.90117,7.50204 L11.52,6.33438 L12.14055,6.33438 L12.14055,11.84211 L11.25,11.84211 L11.25,7.53399 Z" id="Combined-Shape" fill="#FFFFFF" fill-rule="nonzero"></path>
        <polygon id="Path" fill="#A6A6A6" fill-rule="nonzero" points="13.73688 18 18 13.73688 15.86844 12.78954 13.73688 13.73688 12.78954 15.86844"></polygon>
        <polygon id="Path" fill="#C4C4C4" fill-rule="nonzero" points="3.31578 15.86844 4.26312 18 13.73679 18 13.73679 13.73688 4.26312 13.73688"></polygon>
        <path d="M1.42101,-8.8817842e-15 C0.63594,-8.8817842e-15 4.79616347e-14,0.63594 4.79616347e-14,1.42101 L4.79616347e-14,13.73679 L2.13156,14.68413 L4.26312,13.73679 L4.26312,4.26312 L13.73679,4.26312 L14.68413,2.13156 L13.73688,-8.8817842e-15 L1.42101,-8.8817842e-15 Z" id="Path" fill="#FFFFFF" fill-rule="nonzero"></path>
        <path d="M3.5971226e-14,13.73688 L3.5971226e-14,16.57899 C3.5971226e-14,17.36415 0.63594,18 1.42101,18 L4.26312,18 L4.26312,13.73688 L3.5971226e-14,13.73688 Z" id="Path" fill="#EAEAEA" fill-rule="nonzero"></path>
        <polygon id="Path" fill="#C4C4C4" fill-rule="nonzero" points="13.73688 4.26312 13.73688 13.73679 18 13.73679 18 4.26312 15.86844 3.31578"></polygon>
        <path d="M18,4.26312 L18,1.42101 C18,0.63585 17.36406,-2.08721929e-14 16.57899,-2.08721929e-14 L13.73688,-2.08721929e-14 L13.73688,4.26312 L18,4.26312 Z" id="Path" fill="#EAEAEA" fill-rule="nonzero"></path>
    </g>
</svg>