<?xml version="1.0" encoding="UTF-8"?>
<svg width="18px" height="18px" viewBox="0 0 18 18" version="1.1" xmlns="http://www.w3.org/2000/svg" xmlns:xlink="http://www.w3.org/1999/xlink">
    <title>Apple</title>
    <g id="Apple" stroke="none" stroke-width="1" fill="none" fill-rule="evenodd">
        <path d="M16.5,13.1929572 C16.400625,13.4838808 16.2965625,13.7615375 16.1859375,14.0278226 C15.9159375,14.6570514 15.5971875,15.2360556 15.2278125,15.7676782 C14.7253125,16.4935656 14.3128125,16.9958115 13.995,17.2744158 C13.5028125,17.732123 12.975,17.9671361 12.4096875,17.9794554 C12.00375,17.9794554 11.5153125,17.8628964 10.9453125,17.6269356 C10.374375,17.3909748 9.849375,17.2744158 9.369375,17.2744158 C8.8659375,17.2744158 8.3259375,17.3909748 7.7484375,17.6269356 C7.17,17.8628964 6.7040625,17.9870364 6.3478125,17.998408 C5.8059375,18.0220989 5.2659375,17.7813999 4.726875,17.2744158 C4.3828125,16.971173 3.9525,16.4509221 3.436875,15.7146107 C2.88375,14.9280747 2.4290625,14.0155033 2.0728125,12.9750015 C1.69125,11.8520555 1.5,10.7641719 1.5,9.71135079 C1.5,8.50501301 1.7578125,7.46451114 2.274375,6.59268808 C2.6803125,5.89238673 3.2203125,5.33991625 3.89625,4.934329 C4.5721875,4.52874175 5.3025,4.32215759 6.0890625,4.30889072 C6.519375,4.30889072 7.08375,4.44345471 7.785,4.70784453 C8.484375,4.97318198 8.9334375,5.10774598 9.1303125,5.10774598 C9.2775,5.10774598 9.77625,4.95043877 10.621875,4.636772 C11.4215625,4.34584843 12.0965625,4.22549895 12.6496875,4.27288063 C14.1478125,4.39512539 15.2728125,4.99213466 16.021875,6.06769898 C14.6821875,6.88834982 14.019375,8.03782957 14.0325,9.5123477 C14.0446875,10.6608798 14.45625,11.6170423 15.26625,12.3760969 C15.63375,12.7276691 16.044375,12.9996399 16.5,13.1929572 Z M12.73125,0 C12.7434375,0.120349488 12.7490625,0.240698976 12.7490625,0.36010083 C12.7490625,1.2603529 12.42375,2.10090405 11.7759375,2.87891137 C10.993125,3.80380192 10.04625,4.33826736 9.0196875,4.25392796 C9.0065625,4.14589771 8.9990625,4.03218166 8.9990625,3.9127798 C8.9990625,3.04853781 9.37125,2.12364726 10.0321875,1.36743552 C10.3621875,0.984591479 10.7821875,0.666186535 11.2903125,0.412220687 C11.7984375,0.162045373 12.279375,0.0236908441 12.73125,0 Z" fill="#FFFFFF" fill-rule="nonzero"></path>
    </g>
</svg>