<?xml version="1.0" encoding="UTF-8"?>
<svg width="18px" height="18px" viewBox="0 0 18 18" version="1.1" xmlns="http://www.w3.org/2000/svg" xmlns:xlink="http://www.w3.org/1999/xlink">
    <title>Artboard</title>
    <g id="Artboard" stroke="none" stroke-width="1" fill="none" fill-rule="evenodd">
        <g id="Group" transform="translate(1, 0)" fill-rule="nonzero">
            <path d="M6.43368,0.418896639 L6.3438,0.474498495 C6.20084,0.562947624 6.06616,0.661841278 5.94048,0.769898949 L6.19972,0.583398928 L8.4,0.583398928 L8.8,3.68117217 L6.8,5.7267117 L4.8,7.14852531 L4.8,8.78802524 C4.8,9.93311827 5.38516,10.9949578 6.34296,11.5879188 L8.44844,12.8913775 L4,15.5453833 L3.14204,15.5453833 L1.542948,14.5554239 C0.585144,13.9624629 0,12.9006234 0,11.7555303 L0,6.24243312 C0,5.0969719 0.585516,4.03484595 1.543808,3.44200769 L6.3438,0.472485684 C6.37356,0.45408401 6.40352,0.436222359 6.43368,0.418896639 Z" id="Path" fill="#CCCCCC"></path>
            <path d="M11.2,6.95403541 L11.2,8.78696156 C11.2,9.93205459 10.61484,10.9938942 9.65704,11.5868552 L4.85704,14.5584513 C3.87512,15.1663448 2.6534,15.188273 1.6542,14.6242768 L6.34292,17.5270201 C7.36156,18.15766 8.63836,18.15766 9.65704,17.5270201 L14.45704,14.555383 C15.41484,13.962422 15.99996,12.9005825 15.99996,11.7554894 L15.99996,10.4314526 L15.59996,9.81779075 L11.2,6.95403541 Z" id="Path" fill="#FFFFFF"></path>
            <path d="M14.4562,3.44196678 L9.6562,0.472448864 C8.66952,-0.137968768 7.44084,-0.156877736 6.43916,0.415717871 L6.3438,0.474711231 C5.38552,1.06755768 4.8,2.12965908 4.8,3.27513257 L4.8,7.15507104 L6.3438,6.19996772 C7.36204,5.57006428 8.63796,5.57006428 9.6562,6.19996772 L14.4562,9.16947745 C15.38452,9.74382404 15.96304,10.7584935 15.99828,11.8627166 C15.99944,11.8270424 16,11.7913273 16,11.7554894 L16,6.24239221 C16,5.09693099 15.41448,4.03480504 14.4562,3.44196678 Z" id="Path" fill="#EAEAEA"></path>
        </g>
    </g>
</svg>