<svg width="31" height="31" viewBox="0 0 31 31" fill="none" xmlns="http://www.w3.org/2000/svg">
<path d="M16.625 20L21.125 15.5L16.625 20ZM21.125 15.5L16.625 11L21.125 15.5ZM21.125 15.5L9.875 15.5L21.125 15.5ZM15.5 2C17.2728 2 19.0283 2.34919 20.6662 3.02763C22.3041 3.70606 23.7923 4.70047 25.0459 5.95406C26.2995 7.20765 27.2939 8.69588 27.9724 10.3338C28.6508 11.9717 29 13.7272 29 15.5C29 17.2728 28.6508 19.0283 27.9724 20.6662C27.2939 22.3041 26.2995 23.7924 25.0459 25.0459C23.7923 26.2995 22.3041 27.2939 20.6662 27.9724C19.0283 28.6508 17.2728 29 15.5 29C11.9196 29 8.4858 27.5777 5.95406 25.0459C3.42232 22.5142 2 19.0804 2 15.5C2 11.9196 3.42232 8.4858 5.95406 5.95406C8.4858 3.42232 11.9196 2 15.5 2Z" fill="black"/>
<path d="M16.625 20L21.125 15.5M21.125 15.5L16.625 11M21.125 15.5L9.875 15.5M15.5 2C17.2728 2 19.0283 2.34919 20.6662 3.02763C22.3041 3.70606 23.7923 4.70047 25.0459 5.95406C26.2995 7.20765 27.2939 8.69588 27.9724 10.3338C28.6508 11.9717 29 13.7272 29 15.5C29 17.2728 28.6508 19.0283 27.9724 20.6662C27.2939 22.3041 26.2995 23.7924 25.0459 25.0459C23.7923 26.2995 22.3041 27.2939 20.6662 27.9724C19.0283 28.6508 17.2728 29 15.5 29C11.9196 29 8.4858 27.5777 5.95406 25.0459C3.42232 22.5142 2 19.0804 2 15.5C2 11.9196 3.42232 8.4858 5.95406 5.95406C8.4858 3.42232 11.9196 2 15.5 2Z" stroke="#F1EAE7" stroke-width="2.25" stroke-linecap="round" stroke-linejoin="round"/>
</svg>
