<?xml version="1.0" encoding="UTF-8"?>
<svg width="1880px" height="700px" viewBox="0 0 1880 700" version="1.1" xmlns="http://www.w3.org/2000/svg" xmlns:xlink="http://www.w3.org/1999/xlink">
    <!-- Generator: Sketch 43.2 (39069) - http://www.bohemiancoding.com/sketch -->
    <title>The Globe Church</title>
    <desc>Created with Sketch.</desc>
    <defs></defs>
    <g id="Logo" stroke="none" stroke-width="1" fill="none" fill-rule="evenodd">
        <g id="tgc-logo-long">
            <path d="M1065.86811,349.995655 C1065.86811,543.297591 909.167836,700 715.868111,700 C522.571286,700 365.868111,543.297591 365.868111,349.995655 C365.868111,156.702409 522.571286,0 715.868111,0 C909.167836,0 1065.86811,156.702409 1065.86811,349.995655 Z" id="Circle" fill="#D06348"></path>
            <path d="M26.8758119,313.732382 L2.80843975,313.732382 C1.18250095,313.732382 0,312.39782 0,310.9269 L0,302.649713 C0,301.164287 1.18250095,299.835527 2.80843975,299.835527 L66.3070016,299.835527 C67.9271438,299.835527 69.1067464,301.164287 69.1067464,302.649713 L69.1067464,310.9269 C69.1067464,312.39782 67.9271438,313.732382 66.3070016,313.732382 L42.2338328,313.732382 L42.2338328,400.499239 C42.2338328,401.984665 40.9064175,403.310524 39.4311896,403.310524 L29.6842517,403.310524 C28.2090238,403.310524 26.8758119,401.984665 26.8758119,400.499239 L26.8758119,313.732382" id="Fill-5" fill="#282938"></path>
            <path d="M114.609847,302.649713 C114.609847,301.164287 115.943058,299.835527 117.418286,299.835527 L127.165224,299.835527 C128.785366,299.835527 129.967867,301.164287 129.967867,302.649713 L129.967867,343.890589 L184.012218,343.890589 L184.012218,302.649713 C184.012218,301.164287 185.194719,299.835527 186.823556,299.835527 L196.567596,299.835527 C198.045722,299.835527 199.370239,301.164287 199.370239,302.649713 L199.370239,400.499239 C199.370239,401.984665 198.045722,403.310524 196.567596,403.310524 L186.823556,403.310524 C185.194719,403.310524 184.012218,401.984665 184.012218,400.499239 L184.012218,357.784542 L129.967867,357.784542 L129.967867,400.499239 C129.967867,401.984665 128.785366,403.310524 127.165224,403.310524 L117.418286,403.310524 C115.943058,403.310524 114.609847,401.984665 114.609847,400.499239 L114.609847,302.649713" id="Fill-6" fill="#282938"></path>
            <path d="M257.579428,302.649713 C257.579428,301.164287 258.75903,299.835527 260.382071,299.835527 L319.446254,299.835527 C321.075091,299.835527 322.257592,301.164287 322.257592,302.649713 L322.257592,310.9269 C322.257592,312.39782 321.075091,313.732382 319.446254,313.732382 L272.783839,313.732382 L272.783839,343.890589 L312.215029,343.890589 C313.693155,343.890589 315.017672,345.22225 315.017672,346.693169 L315.017672,354.973258 C315.017672,356.600844 313.693155,357.784542 312.215029,357.784542 L272.783839,357.784542 L272.783839,389.567433 L319.446254,389.567433 C321.075091,389.567433 322.257592,390.896193 322.257592,392.372915 L322.257592,400.499239 C322.257592,401.984665 321.075091,403.310524 319.446254,403.310524 L260.382071,403.310524 C258.75903,403.310524 257.579428,401.984665 257.579428,400.499239 L257.579428,302.649713" id="Fill-7" fill="#282938"></path>
            <path d="M481.764797,298.358805 C495.940317,298.358805 507.603022,303.528783 517.642687,312.107698 C518.825188,313.291397 518.975899,315.064043 517.793398,316.247742 C515.576209,318.612238 513.364816,320.825871 511.144729,323.190367 C509.965126,324.524929 508.782625,324.374066 507.307397,323.039504 C500.368899,316.984653 491.213211,312.989669 482.202438,312.989669 C461.236233,312.989669 445.142047,330.727743 445.142047,351.425063 C445.142047,371.974421 461.236233,389.712494 482.202438,389.712494 C494.462191,389.712494 502.875917,385.276525 504.354043,384.687577 L504.354043,368.130301 L489.882898,368.130301 C488.259857,368.130301 487.080255,366.949504 487.080255,365.46988 L487.080255,356.896768 C487.080255,355.274985 488.259857,354.091286 489.882898,354.091286 L516.75871,354.091286 C518.233938,354.091286 519.416439,355.420046 519.416439,356.896768 C519.416439,368.722151 519.56715,380.843458 519.56715,392.66884 C519.56715,393.40575 518.975899,394.586548 518.384649,395.033336 C518.384649,395.033336 503.171542,404.790147 481.764797,404.790147 C452.376171,404.790147 428.604424,381.290246 428.604424,351.72679 C428.604424,322.160433 452.376171,298.358805 481.764797,298.358805" id="Fill-8" fill="#FFFFFF"></path>
            <path d="M575.109915,299.835527 L584.856853,299.835527 C586.33208,299.835527 587.665292,301.164287 587.665292,302.649713 L587.665292,389.567433 L627.679038,389.567433 C629.307875,389.567433 630.487477,390.896193 630.487477,392.372915 L630.487477,400.499239 C630.487477,401.984665 629.307875,403.310524 627.679038,403.310524 L575.109915,403.310524 C573.489772,403.310524 572.307271,401.984665 572.307271,400.499239 L572.307271,302.649713 C572.307271,301.164287 573.489772,299.835527 575.109915,299.835527 Z" id="Fill-9" fill="#FFFFFF"></path>
            <path d="M716.117874,371.463806 C732.762745,371.463806 746.390498,357.94411 746.390498,341.28239 C746.390498,324.722213 732.762745,310.857271 716.117874,310.857271 C699.583138,310.857271 685.958283,324.722213 685.958283,341.28239 C685.958283,357.94411 699.583138,371.463806 716.117874,371.463806 L716.117874,371.463806 Z M716.117874,299.203061 C739.402724,299.203061 758.032923,317.968167 758.032923,341.28239 C758.032923,364.59081 739.402724,383.120917 716.117874,383.120917 C692.830125,383.120917 674.315858,364.59081 674.315858,341.28239 C674.315858,317.968167 692.830125,299.203061 716.117874,299.203061 L716.117874,299.203061 Z" id="Fill-10" fill="#FFFFFF"></path>
            <path d="M858.823193,344.775461 C868.271607,344.775461 874.0363,337.821232 874.0363,328.952195 C874.0363,319.940998 868.271607,313.732382 858.823193,313.732382 L838.888778,313.732382 L838.888778,344.775461 L858.823193,344.775461 L858.823193,344.775461 Z M861.185297,389.712494 C870.19607,389.712494 877.13167,382.761166 877.13167,373.604908 C877.13167,364.585008 868.567233,358.080467 858.973904,358.080467 L838.738067,358.080467 L838.738067,389.712494 L861.185297,389.712494 L861.185297,389.712494 Z M823.82928,302.649713 C823.82928,301.164287 825.008883,299.835527 826.631923,299.835527 L859.70717,299.835527 C877.578006,299.835527 890.423212,311.66091 890.423212,327.179548 C890.423212,338.563944 882.009486,346.693169 875.065191,350.688153 C882.896362,353.940423 893.527277,361.187676 893.527277,374.785705 C893.527277,391.342981 879.940109,403.310524 861.336007,403.310524 L826.631923,403.310524 C825.008883,403.310524 823.82928,401.984665 823.82928,400.499239 L823.82928,302.649713 L823.82928,302.649713 Z" id="Fill-11" fill="#FFFFFF"></path>
            <path d="M945.229812,302.649713 C945.229812,301.164287 946.412313,299.835527 948.04115,299.835527 L1007.10533,299.835527 C1008.72837,299.835527 1009.90798,301.164287 1009.90798,302.649713 L1009.90798,310.9269 C1009.90798,312.39782 1008.72837,313.732382 1007.10533,313.732382 L960.442919,313.732382 L960.442919,343.890589 L999.868312,343.890589 C1001.34354,343.890589 1002.67675,345.22225 1002.67675,346.693169 L1002.67675,354.973258 C1002.67675,356.600844 1001.34354,357.784542 999.868312,357.784542 L960.442919,357.784542 L960.442919,389.567433 L1007.10533,389.567433 C1008.72837,389.567433 1009.90798,390.896193 1009.90798,392.372915 L1009.90798,400.499239 C1009.90798,401.984665 1008.72837,403.310524 1007.10533,403.310524 L948.04115,403.310524 C946.412313,403.310524 945.229812,401.984665 945.229812,400.499239 L945.229812,302.649713" id="Fill-12" fill="#FFFFFF"></path>
            <path d="M1169.56879,298.358805 C1184.47758,298.358805 1195.2621,303.383722 1205.30177,312.107698 C1206.62918,313.291397 1206.62918,315.064043 1205.44668,316.247742 L1198.94872,322.897344 C1197.91983,324.223202 1196.58662,324.223202 1195.2621,322.897344 C1188.31781,316.839591 1178.86649,312.989669 1169.71081,312.989669 C1148.59969,312.989669 1132.65042,330.727743 1132.65042,351.425063 C1132.65042,372.119482 1148.7417,389.712494 1169.86152,389.712494 C1180.64025,389.712494 1188.17289,385.43029 1195.2621,379.955684 C1196.58662,378.92575 1197.91983,379.070811 1198.80671,379.80482 L1205.59739,386.460224 C1206.77989,387.493059 1206.48427,389.41657 1205.44668,390.446504 C1195.40412,400.212018 1182.70672,404.790147 1169.56879,404.790147 C1140.03525,404.790147 1116.25771,381.290246 1116.25771,351.72679 C1116.25771,322.160433 1140.03525,298.358805 1169.56879,298.358805" id="Fill-13" fill="#282938"></path>
            <path d="M1256.43713,302.514784 C1256.43713,301.029359 1257.76454,299.700599 1259.23977,299.700599 L1268.9925,299.700599 C1270.61554,299.700599 1271.79515,301.029359 1271.79515,302.514784 L1271.79515,343.75566 L1325.8424,343.75566 L1325.8424,302.514784 C1325.8424,301.029359 1327.022,299.700599 1328.65084,299.700599 L1338.38908,299.700599 C1339.873,299.700599 1341.20042,301.029359 1341.20042,302.514784 L1341.20042,400.364311 C1341.20042,401.849736 1339.873,403.175595 1338.38908,403.175595 L1328.65084,403.175595 C1327.022,403.175595 1325.8424,401.849736 1325.8424,400.364311 L1325.8424,357.649614 L1271.79515,357.649614 L1271.79515,400.364311 C1271.79515,401.849736 1270.61554,403.175595 1268.9925,403.175595 L1259.23977,403.175595 C1257.76454,403.175595 1256.43713,401.849736 1256.43713,400.364311 L1256.43713,302.514784" id="Fill-14" fill="#282938"></path>
            <path d="M1397.76249,302.649713 C1397.76249,301.164287 1399.0957,299.835527 1400.56513,299.835527 L1410.46278,299.835527 C1412.09162,299.835527 1413.27122,301.164287 1413.27122,302.649713 L1413.27122,363.697234 C1413.27122,378.478961 1422.72253,390.008419 1437.77913,390.008419 C1452.99224,390.008419 1462.58557,378.624023 1462.58557,363.993158 L1462.58557,302.649713 C1462.58557,301.164287 1463.76807,299.835527 1465.39401,299.835527 L1475.29166,299.835527 C1476.76109,299.835527 1478.0943,301.164287 1478.0943,302.649713 L1478.0943,364.735871 C1478.0943,387.202937 1461.11614,404.790147 1437.77913,404.790147 C1414.59864,404.790147 1397.76249,387.202937 1397.76249,364.735871 L1397.76249,302.649713" id="Fill-15" fill="#282938"></path>
            <path d="M1576.75777,350.096303 C1586.3511,350.096303 1594.77063,341.964177 1594.77063,331.76638 C1594.77063,322.160433 1586.3511,314.170467 1576.75777,314.170467 L1550.47321,314.170467 L1550.47321,350.096303 L1576.75777,350.096303 L1576.75777,350.096303 Z M1534.96448,302.649713 C1534.96448,301.164287 1536.14408,299.835527 1537.77292,299.835527 L1577.93738,299.835527 C1595.6575,299.835527 1610.12865,313.883246 1610.12865,331.470456 C1610.12865,345.071386 1601.11787,356.304919 1588.27267,361.474897 L1608.5085,399.028319 C1609.5374,400.946027 1608.5085,403.310524 1605.99569,403.310524 L1594.475,403.310524 C1593.2954,403.310524 1592.40852,402.576514 1592.1129,401.984665 L1572.47701,362.80946 L1550.17759,362.80946 L1550.17759,400.499239 C1550.17759,401.984665 1548.85017,403.310524 1547.36625,403.310524 L1537.77292,403.310524 C1536.14408,403.310524 1534.96448,401.984665 1534.96448,400.499239 L1534.96448,302.649713 L1534.96448,302.649713 Z" id="Fill-16" fill="#282938"></path>
            <path d="M1708.4965,298.358805 C1723.41398,298.358805 1734.1956,303.383722 1744.23817,312.107698 C1745.56268,313.291397 1745.56268,315.064043 1744.38308,316.247742 L1737.88512,322.897344 C1736.84753,324.223202 1735.52302,324.223202 1734.1956,322.897344 C1727.25131,316.839591 1717.80289,312.989669 1708.64721,312.989669 C1687.53319,312.989669 1671.58681,330.727743 1671.58681,351.425063 C1671.58681,372.119482 1687.6781,389.712494 1708.79792,389.712494 C1719.57375,389.712494 1727.10929,385.43029 1734.1956,379.955684 C1735.52302,378.92575 1736.84753,379.070811 1737.74021,379.80482 L1744.5251,386.460224 C1745.7076,387.493059 1745.41777,389.41657 1744.38308,390.446504 C1734.34052,400.212018 1721.64022,404.790147 1708.4965,404.790147 C1678.96295,404.790147 1655.19121,381.290246 1655.19121,351.72679 C1655.19121,322.160433 1678.96295,298.358805 1708.4965,298.358805" id="Fill-17" fill="#282938"></path>
            <path d="M1795.05988,302.514784 C1795.05988,301.029359 1796.3873,299.700599 1797.86252,299.700599 L1807.61526,299.700599 C1809.2383,299.700599 1810.4179,301.029359 1810.4179,302.514784 L1810.4179,343.75566 L1864.46515,343.75566 L1864.46515,302.514784 C1864.46515,301.029359 1865.64475,299.700599 1867.27359,299.700599 L1877.01183,299.700599 C1878.49576,299.700599 1879.82317,301.029359 1879.82317,302.514784 L1879.82317,400.364311 C1879.82317,401.849736 1878.49576,403.175595 1877.01183,403.175595 L1867.27359,403.175595 C1865.64475,403.175595 1864.46515,401.849736 1864.46515,400.364311 L1864.46515,357.649614 L1810.4179,357.649614 L1810.4179,400.364311 C1810.4179,401.849736 1809.2383,403.175595 1807.61526,403.175595 L1797.86252,403.175595 C1796.3873,403.175595 1795.05988,401.849736 1795.05988,400.364311 L1795.05988,302.514784" id="Fill-18" fill="#282938"></path>
            <rect id="Rectangle" fill="#FFFFFF" x="685.842804" y="398.203593" width="62.8742515" height="10.6271775" rx="1.75"></rect>
        </g>
    </g>
</svg>
