<svg height="700" viewBox="0 0 700 700" width="700" xmlns="http://www.w3.org/2000/svg"><g fill="none" fill-rule="evenodd"><path d="m700 349.995655c0 193.301936-156.700275 350.004345-350 350.004345-193.296825 0-350-156.702409-350-350.004345 0-193.293246 156.703175-349.995655 350-349.995655 193.299725 0 350 156.702409 350 349.995655z" fill="#d06348"/><path d="m380.73779 396.562033c.964974 0 1.74724.780274 1.74724 1.752239v7.106814c0 .967735-.783582 1.752239-1.74724 1.752239h-59.379772c-.964974 0-1.74724-.780273-1.74724-1.752239v-7.106814c0-.967735.783582-1.752239 1.74724-1.752239zm-264.703165-99.402093c14.17552 0 25.838225 5.162251 35.87789 13.728342 1.182501 1.181929 1.333212 2.951926.150711 4.133855-2.217189 2.360962-4.428582 4.571286-6.64867 6.932248-1.179602 1.332567-2.362103 1.181929-3.837331-.150638-6.938498-6.045801-16.094186-10.034812-25.104959-10.034812-20.9662053 0-37.060391 17.711559-37.060391 38.377941 0 20.518642 16.0941857 38.230201 37.060391 38.230201 12.259753 0 20.673479-4.429338 22.151605-5.017406v-16.532527h-14.471145c-1.623041 0-2.802643-1.179032-2.802643-2.656444v-8.560297c0-1.619359 1.179602-2.801289 2.802643-2.801289h26.875812c1.475228 0 2.657729 1.326774 2.657729 2.801289 0 11.807706.15071 23.910894.15071 35.7186 0 .686755-.515044 1.759607-1.064426 2.262315l-.136258.110182c-.592818.374257-15.623058 9.730692-36.601668 9.730692-29.3886266 0-53.1603735-23.464774-53.1603735-52.984039 0-29.522163 23.7717469-53.288213 53.1603735-53.288213zm102.952082 1.046338c1.475228 0 2.80844 1.326774 2.80844 2.809979v86.787799h40.013745c1.628837 0 2.80844 1.326773 2.80844 2.801288v8.114177c0 1.483205-1.179603 2.807082-2.80844 2.807082h-52.569123c-1.620142 0-2.802643-1.323877-2.802643-2.807082v-97.703264c0-1.483205 1.182501-2.809979 2.802643-2.809979zm274.825315 0c17.870835 0 30.716042 11.807706 30.716042 27.303148 0 11.367379-8.413726 19.484453-15.358021 23.473464l.532033.224997c7.771563 3.350847 17.930053 10.56395 17.930053 23.836536 0 16.532527-13.587168 28.48218-32.19127 28.48218h-34.704084c-1.623041 0-2.802643-1.323877-2.802643-2.807082v-97.703264c0-1.483205 1.179602-2.809979 2.802643-2.809979zm147.554517 0c1.623041 0 2.802643 1.326774 2.802643 2.809979v8.264815c0 1.468721-1.179602 2.801288-2.802643 2.801288h-46.662415v30.113127h39.425394c1.475227 0 2.808439 1.329671 2.808439 2.798392v8.267712c0 1.625153-1.333212 2.807082-2.808439 2.807082h-39.425394v31.735383h46.662415c1.623041 0 2.802643 1.326773 2.802643 2.801288v8.114177c0 1.483205-1.179602 2.807082-2.802643 2.807082h-59.064183c-1.628837 0-2.811338-1.323877-2.811338-2.807082v-97.703264c0-1.483205 1.182501-2.809979 2.811338-2.809979zm-148.287784 58.157877h-20.235837v31.584745h22.44723c9.010773 0 15.946373-6.940938 15.946373-16.083509 0-9.006418-8.564437-15.501236-18.157766-15.501236zm-143.192907-59.204215c23.284851 0 41.91505 18.737057 41.91505 42.01643 0 23.27358-18.630199 41.775989-41.91505 41.775989-23.287748 0-41.802016-18.502409-41.802016-41.775989 0-23.279373 18.514268-42.01643 41.802016-42.01643zm0 11.63679c-16.534736 0-30.15959 13.844217-30.15959 30.37964 0 16.636815 13.624854 30.136302 30.15959 30.136302 16.644872 0 30.272624-13.499487 30.272624-30.136302 0-16.535423-13.627752-30.37964-30.272624-30.37964zm143.042197 3.28563h-19.934416v30.996677h19.934416c9.448414 0 15.213106-6.943835 15.213106-15.799614 0-8.997727-5.764692-15.197063-15.213106-15.197063z" fill="#fff"/></g></svg>