<?xml version="1.0" encoding="UTF-8"?>
<svg width="165px" height="40px" viewBox="0 0 165 40" version="1.1" xmlns="http://www.w3.org/2000/svg" xmlns:xlink="http://www.w3.org/1999/xlink">
    <title>apple-podcasts</title>
    <defs>
        <linearGradient x1="50%" y1="0%" x2="50%" y2="100%" id="linearGradient-1">
            <stop stop-color="#F452FF" offset="0%"></stop>
            <stop stop-color="#832BC1" offset="100%"></stop>
        </linearGradient>
    </defs>
    <g id="Page-1" stroke="none" stroke-width="1" fill="none" fill-rule="evenodd">
        <g id="apple-podcasts">
            <path d="M155.3273,0 L9.5347,0 C9.168,0 8.8057,0 8.4399,0.002 C8.1338,0.0039 7.8301,0.0098 7.521,0.0146 C6.8555,0.0312 6.1816,0.0723 5.5171,0.1914 C4.8477,0.3086 4.2256,0.5088 3.6162,0.8184 C3.0176,1.125 2.4707,1.5234 1.9976,1.9971 C1.519,2.4707 1.1226,3.0195 0.8193,3.6182 C0.5083,4.2266 0.311,4.8516 0.1943,5.5215 C0.0737,6.1836 0.0322,6.8535 0.0151,7.5235 C0.0059,7.8301 0.0049,8.1377 0,8.4443 C0,8.8066 0,9.1699 0,9.5361 L0,30.4648 C0,30.834 0,31.1953 0,31.5586 C0.0049,31.8691 0.0059,32.1699 0.0151,32.4805 C0.0322,33.1504 0.0737,33.8203 0.1943,34.4824 C0.311,35.1523 0.5083,35.7803 0.8193,36.3867 C1.1225,36.9824 1.519,37.5313 1.9975,38.001 C2.4706,38.4785 3.0175,38.876 3.6162,39.1797 C4.2256,39.4922 4.8476,39.6895 5.5171,39.8105 C6.1816,39.9297 6.8555,39.9688 7.521,39.9873 C7.8301,39.9941 8.1338,39.998 8.4399,39.998 C8.8057,40 9.168,40 9.5347,40 L155.3274,40 C155.6868,40 156.052,40 156.4114,39.998 C156.7161,39.998 157.0286,39.9941 157.3333,39.9873 C158.0032,39.9688 158.6751,39.9297 159.3333,39.8105 C160.0032,39.6895 160.6262,39.4922 161.2415,39.1797 C161.8391,38.876 162.386,38.4785 162.8587,38.001 C163.3352,37.5313 163.7317,36.9824 164.0403,36.3867 C164.3469,35.7803 164.5462,35.1523 164.6594,34.4824 C164.7825,33.8203 164.8215,33.1504 164.845,32.4805 C164.8489,32.1699 164.8489,31.8691 164.8489,31.5586 C164.8567,31.1953 164.8567,30.834 164.8567,30.4648 L164.8567,9.5361 C164.8567,9.1699 164.8567,8.8066 164.8489,8.4443 C164.8489,8.1377 164.8489,7.83 164.845,7.5234 C164.8215,6.8535 164.7825,6.1836 164.6594,5.5214 C164.5462,4.8515 164.3469,4.2265 164.0403,3.6181 C163.7317,3.0195 163.3352,2.4706 162.8587,1.997 C162.386,1.5234 161.8391,1.1249 161.2415,0.8183 C160.6262,0.5087 160.0032,0.3085 159.3333,0.1913 C158.6751,0.0722 158.0032,0.0311 157.3333,0.0145 C157.0286,0.0096 156.7161,0.0038 156.4114,0.0018 C156.0519,0 155.6867,0 155.3273,0 L155.3273,0 Z" id="Path" fill="#000000" fill-rule="nonzero"></path>
            <g id="XMLID_632_" transform="translate(7.5167, 7.4183)">
                <path d="M24.6654,21.8098 C24.4208,22.4311 23.8564,23.3059 23.056,23.9221 C22.5939,24.278 22.0422,24.6182 21.2844,24.8427 C20.4766,25.0821 19.4816,25.163 18.2432,25.163 L6.9199,25.163 C5.6816,25.163 4.6866,25.0821 3.8787,24.8427 C3.1209,24.6182 2.5693,24.278 2.1071,23.9221 C1.3068,23.3058 0.7423,22.4311 0.4977,21.8098 C0.005,20.558 1.77635684e-15,19.1377 1.77635684e-15,18.2432 L1.77635684e-15,18.2432 L1.77635684e-15,6.9198 L1.77635684e-15,6.9198 C1.77635684e-15,6.0253 0.005,4.605 0.4977,3.3532 C0.7423,2.7319 1.3067,1.8571 2.1071,1.2409 C2.5692,0.885 3.1209,0.5448 3.8787,0.3203 C4.6865,0.0809 5.6815,0 6.9199,0 L6.9199,0 L18.2433,0 L18.2433,0 C19.4816,0 20.4766,0.0809 21.2845,0.3203 C22.0423,0.5448 22.5939,0.8851 23.0561,1.2409 C23.8564,1.8572 24.4209,2.7319 24.6655,3.3532 C25.1582,4.605 25.1632,6.0253 25.1632,6.9198 L25.1632,18.2432 C25.1632,19.1376 25.1581,20.5579 24.6654,21.8098 Z" id="XMLID_662_" fill="url(#linearGradient-1)"></path>
                <path d="M24.6654,21.8098 C24.4208,22.4311 23.8564,23.3059 23.056,23.9221 C22.5939,24.278 22.0422,24.6182 21.2844,24.8427 C20.4766,25.0821 19.4816,25.163 18.2432,25.163 L6.9199,25.163 C5.6816,25.163 4.6866,25.0821 3.8787,24.8427 C3.1209,24.6182 2.5693,24.278 2.1071,23.9221 C1.3068,23.3058 0.7423,22.4311 0.4977,21.8098 C0.005,20.558 1.77635684e-15,19.1377 1.77635684e-15,18.2432 L1.77635684e-15,18.2432 L1.77635684e-15,6.9198 L1.77635684e-15,6.9198 C1.77635684e-15,6.0253 0.005,4.605 0.4977,3.3532 C0.7423,2.7319 1.3067,1.8571 2.1071,1.2409 C2.5692,0.885 3.1209,0.5448 3.8787,0.3203 C4.6865,0.0809 5.6815,0 6.9199,0 L6.9199,0 L18.2433,0 L18.2433,0 C19.4816,0 20.4766,0.0809 21.2845,0.3203 C22.0423,0.5448 22.5939,0.8851 23.0561,1.2409 C23.8564,1.8572 24.4209,2.7319 24.6655,3.3532 C25.1582,4.605 25.1632,6.0253 25.1632,6.9198 L25.1632,18.2432 C25.1632,19.1376 25.1581,20.5579 24.6654,21.8098 Z" id="XMLID_660_"></path>
                <g id="XMLID_648_" transform="translate(3.7361, 2.7888)" fill="#FFFFFF" fill-rule="nonzero">
                    <path d="M10.6703934,11.6743735 C10.2927934,11.2759735 9.62959338,11.0205735 8.84669338,11.0205735 C8.06369338,11.0205735 7.40049338,11.2759735 7.02289338,11.6743735 C6.82589338,11.8822735 6.72169338,12.0953735 6.68889338,12.3989735 C6.62529338,12.9868735 6.66099338,13.4930735 6.72989338,14.3023735 C6.79549338,15.0735735 6.92009338,16.1019735 7.08269338,17.1493735 C7.19839338,17.8947735 7.29239338,18.2970735 7.37799338,18.5851735 C7.51679338,19.0520735 8.03549338,19.4603735 8.84669338,19.4603735 C9.65779338,19.4603735 10.1764934,19.0519735 10.3152934,18.5851735 C10.4008934,18.2970735 10.4948934,17.8947735 10.6105934,17.1493735 C10.7731934,16.1019735 10.8977934,15.0735735 10.9633934,14.3023735 C11.0322934,13.4929735 11.0679934,12.9867735 11.0043934,12.3989735 C10.9715934,12.0954735 10.8673934,11.8822735 10.6703934,11.6743735 Z M6.78929338,8.12707354 C6.78929338,9.26437354 7.71129338,10.1863735 8.84859338,10.1863735 C9.98599338,10.1863735 10.9079934,9.26437354 10.9079934,8.12707354 C10.9079934,6.98967354 9.98599338,6.06767354 8.84859338,6.06767354 C7.71129338,6.06767354 6.78929338,6.98967354 6.78929338,8.12707354 Z M8.82309338,3.6675268e-05 C4.00679338,0.0137735442 0.0602933775,3.92107354 0.000693377541,8.73707354 C-0.0477066225,12.6383735 2.44269338,15.9755735 5.92019338,17.1987735 C6.00459338,17.2284735 6.09029338,17.1583735 6.07699338,17.0698735 C6.03139338,16.7669735 5.98839338,16.4625735 5.94889338,16.1632735 C5.93489338,16.0574735 5.86749338,15.9662735 5.76979338,15.9235735 C3.02119338,14.7227735 1.10189338,11.9661735 1.13269338,8.77307354 C1.17309338,4.58267354 4.59489338,1.16647354 8.78529338,1.13257354 C13.0691934,1.09797354 16.5652934,4.57277354 16.5652934,8.84877354 C16.5652934,12.0098735 14.6543934,14.7326735 11.9271934,15.9238735 C11.8294934,15.9665735 11.7624934,16.0580735 11.7485934,16.1637735 C11.7090934,16.4629735 11.6660934,16.7672735 11.6205934,17.0698735 C11.6071934,17.1583735 11.6928934,17.2284735 11.7772934,17.1988735 C15.2215934,15.9873735 17.6974934,12.7020735 17.6974934,8.84887354 C17.6972934,3.96097354 13.7139934,-0.0139264558 8.82309338,3.6675268e-05 Z M8.66319338,4.05957354 C11.3934934,3.95387354 13.6482934,6.14427354 13.6482934,8.85147354 C13.6482934,10.2282735 13.0649934,11.4712735 12.1326934,12.3466735 C12.0535934,12.4208735 12.0110934,12.5262735 12.0171934,12.6345735 C12.0357934,12.9638735 12.0289934,13.2838735 12.0070934,13.6452735 C12.0011934,13.7415735 12.1091934,13.8030735 12.1888934,13.7487735 C13.7522934,12.6803735 14.7805934,10.8838735 14.7805934,8.85147354 C14.7805934,5.50507354 11.9931934,2.79737354 8.61829338,2.92817354 C5.48189338,3.04977354 2.96559338,5.63567354 2.92539338,8.77427354 C2.89899338,10.8384735 3.93359338,12.6671735 5.51709338,13.7489735 C5.59659338,13.8032735 5.70429338,13.7416735 5.69839338,13.6454735 C5.67639338,13.2838735 5.66969338,12.9638735 5.68819338,12.6345735 C5.69429338,12.5263735 5.65189338,12.4209735 5.57299338,12.3468735 C4.61159338,11.4442735 4.02119338,10.1507735 4.05879338,8.72277354 C4.12499338,6.20977354 6.15109338,4.15687354 8.66319338,4.05957354 Z" id="Shape"></path>
                </g>
            </g>
            <g id="Group" transform="translate(38.348, 18.7597)" fill="#FFFFFF" fill-rule="nonzero">
                <path d="M7.875,9.0626 L3.1416,9.0626 L2.0049,12.419 L7.10542736e-15,12.419 L4.4834,0.0001 L6.5664,0.0001 L11.0498,12.419 L9.0107,12.419 L7.875,9.0626 Z M3.6318,7.5137 L7.3838,7.5137 L5.5342,2.0655 L5.4824,2.0655 L3.6318,7.5137 Z" id="Shape"></path>
                <path d="M20.7324,7.8926 C20.7324,10.7061 19.2265,12.5137 16.9541,12.5137 C15.6641,12.5137 14.6396,11.9366 14.1055,10.9297 L14.0625,10.9297 L14.0625,15.4141 L12.2041,15.4141 L12.2041,3.3653 L14.0029,3.3653 L14.0029,4.8712 L14.0371,4.8712 C14.5537,3.8995 15.6553,3.2706 16.9199,3.2706 C19.2177,3.2706 20.7324,5.087 20.7324,7.8926 Z M18.8222,7.8926 C18.8222,6.0596 17.8749,4.8545 16.4296,4.8545 C15.0097,4.8545 14.0546,6.085 14.0546,7.8926 C14.0546,9.7168 15.0097,10.9385 16.4296,10.9385 C17.875,10.9385 18.8222,9.7423 18.8222,7.8926 Z" id="Shape"></path>
                <path d="M30.6972,7.8926 C30.6972,10.7061 29.1913,12.5137 26.9189,12.5137 C25.6289,12.5137 24.6045,11.9366 24.0703,10.9297 L24.0273,10.9297 L24.0273,15.4141 L22.1689,15.4141 L22.1689,3.3653 L23.9677,3.3653 L23.9677,4.8712 L24.0019,4.8712 C24.5185,3.8995 25.6201,3.2706 26.8847,3.2706 C29.1826,3.2706 30.6972,5.087 30.6972,7.8926 Z M28.7871,7.8926 C28.7871,6.0596 27.8398,4.8545 26.3945,4.8545 C24.9746,4.8545 24.0195,6.085 24.0195,7.8926 C24.0195,9.7168 24.9746,10.9385 26.3945,10.9385 C27.8398,10.9385 28.7871,9.7423 28.7871,7.8926 Z" id="Shape"></path>
                <polygon id="Path" points="32.2021 0.0001 34.0615 0.0001 34.0615 12.419 32.2021 12.419"></polygon>
                <path d="M43.7373,9.7598 C43.4873,11.4034 41.8867,12.5313 39.8389,12.5313 C37.2051,12.5313 35.5703,10.7667 35.5703,7.9356 C35.5703,5.0958 37.2139,3.254 39.7607,3.254 C42.2656,3.254 43.8408,4.9747 43.8408,7.7198 L43.8408,8.3565 L37.4463,8.3565 L37.4463,8.4688 C37.4463,10.0176 38.419,11.0333 39.8818,11.0333 C40.914,11.0333 41.7236,10.5431 41.9726,9.7599 L43.7373,9.7599 L43.7373,9.7598 Z M37.455,7.0577 L41.9814,7.0577 C41.9384,5.672 41.0517,4.7598 39.7607,4.7598 C38.4785,4.7598 37.5498,5.6895 37.455,7.0577 Z" id="Shape"></path>
                <path d="M53.7392,0.0001 C56.1484,0.0001 57.8271,1.6612 57.8271,4.0802 C57.8271,6.507 56.1142,8.1759 53.6787,8.1759 L51.0107,8.1759 L51.0107,12.4191 L49.083,12.4191 L49.083,0.0001 L53.7392,0.0001 Z M51.0107,6.5587 L53.2226,6.5587 C54.9003,6.5587 55.8554,5.6544 55.8554,4.089 C55.8554,2.5226 54.9003,1.6266 53.2314,1.6266 L51.0107,1.6266 L51.0107,6.5587 L51.0107,6.5587 Z" id="Shape"></path>
                <path d="M58.5058,7.8926 C58.5058,5.044 60.1835,3.2539 62.7997,3.2539 C65.4247,3.2539 67.0946,5.0439 67.0946,7.8926 C67.0946,10.749 65.4335,12.5313 62.7997,12.5313 C60.1669,12.5313 58.5058,10.7491 58.5058,7.8926 Z M65.2011,7.8926 C65.2011,5.9385 64.3056,4.7852 62.7997,4.7852 C61.2938,4.7852 60.3983,5.9473 60.3983,7.8926 C60.3983,9.8545 61.2938,10.999 62.7997,10.999 C64.3056,10.999 65.2011,9.8546 65.2011,7.8926 Z" id="Shape"></path>
                <path d="M68.3994,7.8926 C68.3994,5.0957 69.9394,3.2705 72.1855,3.2705 C73.4853,3.2705 74.5097,3.873 75.0253,4.8711 L75.0605,4.8711 L75.0605,0 L76.9277,0 L76.9277,12.4189 L75.1201,12.4189 L75.1201,10.8789 L75.0859,10.8789 C74.5527,11.9111 73.5195,12.5137 72.2031,12.5137 C69.9394,12.5137 68.3994,10.6895 68.3994,7.8926 Z M70.3007,7.8926 C70.3007,9.751 71.248,10.9385 72.6933,10.9385 C74.122,10.9385 75.0771,9.7334 75.0771,7.8926 C75.0771,6.0674 74.122,4.8545 72.6933,4.8545 C71.248,4.8546 70.3007,6.0508 70.3007,7.8926 Z" id="Shape"></path>
                <path d="M84.8359,6.4805 C84.6728,5.5254 83.9238,4.8116 82.7021,4.8116 C81.2734,4.8116 80.3261,6.0079 80.3261,7.8927 C80.3261,9.8204 81.2822,10.9816 82.7187,10.9816 C83.872,10.9816 84.6298,10.4054 84.8359,9.3556 L86.6259,9.3556 C86.4198,11.257 84.8964,12.5314 82.7021,12.5314 C80.1201,12.5314 78.4335,10.7668 78.4335,7.8927 C78.4335,5.0782 80.12,3.254 82.6845,3.254 C85.0077,3.254 86.454,4.7169 86.6093,6.4806 L84.8359,6.4806 L84.8359,6.4805 Z" id="Path"></path>
                <path d="M87.7646,9.8458 C87.7646,8.2628 88.9775,7.3067 91.1289,7.1778 L93.6074,7.0401 L93.6074,6.3516 C93.6074,5.3448 92.9453,4.7764 91.8183,4.7764 C90.7851,4.7764 90.0624,5.2676 89.916,6.0508 L88.1777,6.0508 C88.2295,4.4151 89.7519,3.2539 91.8691,3.2539 C94.0293,3.2539 95.458,4.4326 95.458,6.2139 L95.458,12.419 L93.6768,12.419 L93.6768,10.9297 L93.6338,10.9297 C93.1084,11.9365 91.9639,12.5742 90.7764,12.5742 C89.0039,12.5743 87.7646,11.4727 87.7646,9.8458 Z M93.6074,9.0284 L93.6074,8.3311 L91.3789,8.4688 C90.2685,8.5381 89.6406,9.0196 89.6406,9.794 C89.6406,10.586 90.2949,11.1026 91.293,11.1026 C92.5927,11.1026 93.6074,10.2071 93.6074,9.0284 Z" id="Shape"></path>
                <path d="M100.6455,3.2628 C102.6514,3.2628 104.0879,4.3722 104.1309,5.9728 L102.3838,5.9728 C102.3067,5.173 101.627,4.6828 100.5938,4.6828 C99.587,4.6828 98.9161,5.1467 98.9161,5.8527 C98.9161,6.3947 99.3634,6.756 100.3018,6.9884 L101.8252,7.3419 C103.6494,7.7804 104.3379,8.4513 104.3379,9.7774 C104.3379,11.4122 102.7891,12.5313 100.5772,12.5313 C98.4424,12.5313 97.0059,11.4375 96.8682,9.7852 L98.709,9.7852 C98.8389,10.6543 99.5352,11.1192 100.6631,11.1192 C101.7735,11.1192 102.4707,10.6631 102.4707,9.9405 C102.4707,9.3809 102.126,9.0801 101.1797,8.8389 L99.5615,8.4434 C97.9258,8.0469 97.0996,7.212 97.0996,5.9561 C97.0996,4.3555 98.5371,3.2628 100.6455,3.2628 Z" id="Path"></path>
                <path d="M108.3759,1.2222 L108.3759,3.3653 L110.0976,3.3653 L110.0976,4.837 L108.3759,4.837 L108.3759,9.8282 C108.3759,10.6036 108.7206,10.9649 109.4775,10.9649 C109.667,10.9649 109.9687,10.9385 110.0888,10.9219 L110.0888,12.3848 C109.8827,12.4366 109.4697,12.4707 109.0566,12.4707 C107.2236,12.4707 106.5087,11.7822 106.5087,10.0264 L106.5087,4.8369 L105.1923,4.8369 L105.1923,3.3653 L106.5087,3.3653 L106.5087,1.2222 L108.3759,1.2222 Z" id="Path"></path>
                <path d="M115.0947,3.2628 C117.1006,3.2628 118.5371,4.3722 118.5801,5.9728 L116.833,5.9728 C116.7559,5.173 116.0762,4.6828 115.043,4.6828 C114.0362,4.6828 113.3653,5.1467 113.3653,5.8527 C113.3653,6.3947 113.8126,6.756 114.751,6.9884 L116.2744,7.3419 C118.0986,7.7804 118.7871,8.4513 118.7871,9.7774 C118.7871,11.4122 117.2383,12.5313 115.0264,12.5313 C112.8916,12.5313 111.4551,11.4375 111.3174,9.7852 L113.1582,9.7852 C113.2881,10.6543 113.9844,11.1192 115.1123,11.1192 C116.2227,11.1192 116.9199,10.6631 116.9199,9.9405 C116.9199,9.3809 116.5752,9.0801 115.6289,8.8389 L114.0107,8.4434 C112.375,8.0469 111.5488,7.212 111.5488,5.9561 C111.5488,4.3555 112.9863,3.2628 115.0947,3.2628 Z" id="Path"></path>
            </g>
            <g id="Group" transform="translate(39.2361, 8.2808)" fill="#FFFFFF" fill-rule="nonzero">
                <polygon id="Path" points="3.7217 6.3803 7.10542736e-15 6.3803 7.10542736e-15 0.4135 0.9263 0.4135 0.9263 5.5282 3.7217 5.5282"></polygon>
                <path d="M4.7984,0.5459 C4.7984,0.2354 5.0425,-1.77635684e-15 5.3731,-1.77635684e-15 C5.7042,-1.77635684e-15 5.9478,0.2354 5.9478,0.5459 C5.9478,0.8516 5.7041,1.0874 5.3731,1.0874 C5.0425,1.0874 4.7984,0.8515 4.7984,0.5459 Z M4.9307,1.8774 L5.8155,1.8774 L5.8155,6.3803 L4.9307,6.3803 L4.9307,1.8774 Z" id="Shape"></path>
                <path d="M8.8946,1.7905 C9.9078,1.7905 10.5694,2.2617 10.6558,3.0556 L9.8042,3.0556 C9.7212,2.725 9.3989,2.5141 8.8945,2.5141 C8.3979,2.5141 8.0219,2.7495 8.0219,3.101 C8.0219,3.37 8.2494,3.5395 8.7372,3.6513 L9.4857,3.8246 C10.3417,4.0233 10.7425,4.3915 10.7425,5.0531 C10.7425,5.9008 9.9529,6.4672 8.8778,6.4672 C7.8065,6.4672 7.1078,5.9833 7.0292,5.1855 L7.9184,5.1855 C8.0302,5.5327 8.3608,5.7475 8.8984,5.7475 C9.4526,5.7475 9.8457,5.4995 9.8457,5.1396 C9.8457,4.871 9.6348,4.6972 9.1836,4.5898 L8.398,4.4077 C7.542,4.2051 7.1451,3.8208 7.1451,3.1509 C7.1451,2.3525 7.877,1.7905 8.8946,1.7905 Z" id="Path"></path>
                <path d="M13.1099,0.7563 L13.1099,1.8979 L14.0855,1.8979 L14.0855,2.6464 L13.1099,2.6464 L13.1099,4.9618 C13.1099,5.4335 13.3042,5.64 13.7466,5.64 C13.8828,5.64 13.9614,5.6317 14.0855,5.6195 L14.0855,6.3597 C13.941,6.3841 13.7754,6.4051 13.6016,6.4051 C12.6133,6.4051 12.2207,6.0574 12.2207,5.1893 L12.2207,2.6463 L11.5054,2.6463 L11.5054,1.8978 L12.2207,1.8978 L12.2207,0.7563 L13.1099,0.7563 Z" id="Path"></path>
                <path d="M19.0171,5.1645 C18.8145,5.9711 18.0947,6.4672 17.0654,6.4672 C15.7749,6.4672 14.9853,5.5824 14.9853,4.143 C14.9853,2.704 15.7915,1.7905 17.061,1.7905 C18.3139,1.7905 19.0708,2.6465 19.0708,4.0605 L19.0708,4.3706 L15.8906,4.3706 L15.8906,4.4204 C15.9199,5.21 16.3789,5.7104 17.0898,5.7104 C17.6274,5.7104 17.9956,5.5161 18.1611,5.1645 L19.0171,5.1645 Z M15.8907,3.7133 L18.1651,3.7133 C18.1446,3.0063 17.7144,2.5468 17.0572,2.5468 C16.3995,2.5468 15.9405,3.0102 15.8907,3.7133 Z" id="Shape"></path>
                <path d="M20.2632,1.8774 L21.1192,1.8774 L21.1192,2.5927 L21.1856,2.5927 C21.4044,2.0922 21.8511,1.7905 22.5294,1.7905 C23.5343,1.7905 24.0885,2.394 24.0885,3.4653 L24.0885,6.3803 L23.1993,6.3803 L23.1993,3.6884 C23.1993,2.9648 22.8848,2.6049 22.2276,2.6049 C21.5699,2.6049 21.1524,3.0434 21.1524,3.746 L21.1524,6.3803 L20.2632,6.3803 L20.2632,1.8774 Z" id="Path"></path>
                <path d="M27.6822,4.1269 C27.6822,2.6752 28.4927,1.7905 29.8077,1.7905 C31.1182,1.7905 31.9288,2.6753 31.9288,4.1269 C31.9288,5.5864 31.1226,6.4672 29.8077,6.4672 C28.4883,6.4672 27.6822,5.5864 27.6822,4.1269 Z M31.0152,4.1269 C31.0152,3.1508 30.5767,2.58 29.8077,2.58 C29.0343,2.58 28.6002,3.1508 28.6002,4.1269 C28.6002,5.1108 29.0343,5.6772 29.8077,5.6772 C30.5767,5.6772 31.0152,5.1069 31.0152,4.1269 Z" id="Shape"></path>
                <path d="M33.1211,1.8774 L33.9771,1.8774 L33.9771,2.5927 L34.0435,2.5927 C34.2627,2.0922 34.709,1.7905 35.3873,1.7905 C36.3922,1.7905 36.9464,2.394 36.9464,3.4653 L36.9464,6.3803 L36.0572,6.3803 L36.0572,3.6884 C36.0572,2.9648 35.7427,2.6049 35.0855,2.6049 C34.4278,2.6049 34.0103,3.0434 34.0103,3.746 L34.0103,6.3803 L33.1211,6.3803 L33.1211,1.8774 Z" id="Path"></path>
            </g>
        </g>
    </g>
</svg>