<?xml version="1.0" encoding="UTF-8"?>
<svg width="165px" height="40px" viewBox="0 0 165 40" version="1.1" xmlns="http://www.w3.org/2000/svg" xmlns:xlink="http://www.w3.org/1999/xlink">
    <title>Pocketcasts</title>
    <g id="Pocketcasts" stroke="none" stroke-width="1" fill="none" fill-rule="evenodd">
        <path d="M155.3273,0 L9.5347,0 C9.168,0 8.8057,0 8.4399,0.002 C8.1338,0.0039 7.8301,0.0098 7.521,0.0146 C6.8555,0.0312 6.1816,0.0723 5.5171,0.1914 C4.8477,0.3086 4.2256,0.5088 3.6162,0.8184 C3.0176,1.125 2.4707,1.5234 1.9976,1.9971 C1.519,2.4707 1.1226,3.0195 0.8193,3.6182 C0.5083,4.2266 0.311,4.8516 0.1943,5.5215 C0.0737,6.1836 0.0322,6.8535 0.0151,7.5235 C0.0059,7.8301 0.0049,8.1377 0,8.4443 C0,8.8066 0,9.1699 0,9.5361 L0,30.4648 C0,30.834 0,31.1953 0,31.5586 C0.0049,31.8691 0.0059,32.1699 0.0151,32.4805 C0.0322,33.1504 0.0737,33.8203 0.1943,34.4824 C0.311,35.1523 0.5083,35.7803 0.8193,36.3867 C1.1225,36.9824 1.519,37.5313 1.9975,38.001 C2.4706,38.4785 3.0175,38.876 3.6162,39.1797 C4.2256,39.4922 4.8476,39.6895 5.5171,39.8105 C6.1816,39.9297 6.8555,39.9688 7.521,39.9873 C7.8301,39.9941 8.1338,39.998 8.4399,39.998 C8.8057,40 9.168,40 9.5347,40 L155.3274,40 C155.6868,40 156.052,40 156.4114,39.998 C156.7161,39.998 157.0286,39.9941 157.3333,39.9873 C158.0032,39.9688 158.6751,39.9297 159.3333,39.8105 C160.0032,39.6895 160.6262,39.4922 161.2415,39.1797 C161.8391,38.876 162.386,38.4785 162.8587,38.001 C163.3352,37.5313 163.7317,36.9824 164.0403,36.3867 C164.3469,35.7803 164.5462,35.1523 164.6594,34.4824 C164.7825,33.8203 164.8215,33.1504 164.845,32.4805 C164.8489,32.1699 164.8489,31.8691 164.8489,31.5586 C164.8567,31.1953 164.8567,30.834 164.8567,30.4648 L164.8567,9.5361 C164.8567,9.1699 164.8567,8.8066 164.8489,8.4443 C164.8489,8.1377 164.8489,7.83 164.845,7.5234 C164.8215,6.8535 164.7825,6.1836 164.6594,5.5214 C164.5462,4.8515 164.3469,4.2265 164.0403,3.6181 C163.7317,3.0195 163.3352,2.4706 162.8587,1.997 C162.386,1.5234 161.8391,1.1249 161.2415,0.8183 C160.6262,0.5087 160.0032,0.3085 159.3333,0.1913 C158.6751,0.0722 158.0032,0.0311 157.3333,0.0145 C157.0286,0.0096 156.7161,0.0038 156.4114,0.0018 C156.0519,0 155.6867,0 155.3273,0 L155.3273,0 Z" id="Path" fill="#000000" fill-rule="nonzero"></path>
        <g id="Pocket-Casts-Roundel---Red" transform="translate(8, 7)" fill-rule="nonzero">
            <g id="Group">
                <path d="M25.16,12.58 C25.16,19.5278874 19.5278874,25.16 12.58,25.16 C5.6321126,25.16 0,19.5278874 0,12.58 C0,5.6321126 5.6321126,0 12.58,0 C19.5278874,0 25.16,5.6321126 25.16,12.58" id="Fill-23" fill="#F43E37"></path>
                <g id="Glyph---White" transform="translate(2.7956, 2.7956)" fill="#FFFFFF">
                    <path d="M0,9.69708333 C0,4.34153209 4.34153209,0 9.69708333,0 C15.0526346,0 19.3941667,4.34153209 19.3941667,9.69708333 L16.9698958,9.69708333 C16.9698958,5.6804199 13.7137468,2.42427083 9.69708333,2.42427083 C5.6804199,2.42427083 2.42427083,5.6804199 2.42427083,9.69708333 C2.42427083,13.7137468 5.6804199,16.9698958 9.69708333,16.9698958 L9.69708333,19.3941667 C4.34153209,19.3941667 0,15.0526346 0,9.69708333 Z M9.69708333,15.5153333 C6.4837526,15.5153333 3.87883333,12.9104141 3.87883333,9.69708333 C3.87883333,6.4837526 6.4837526,3.87883333 9.69708333,3.87883333 C12.9104141,3.87883333 15.5153333,6.4837526 15.5153333,9.69708333 L13.3996061,9.69708333 C13.3996061,7.65223652 11.7419301,5.99456059 9.69708333,5.99456059 C7.65223652,5.99456059 5.99456059,7.65223652 5.99456059,9.69708333 C5.99456059,11.7419301 7.65223652,13.3996061 9.69708333,13.3996061 L9.69708333,15.5153333 Z" id="Path"></path>
                </g>
            </g>
        </g>
        <g id="Group" transform="translate(39, 8)" fill="#FFFFFF" fill-rule="nonzero">
            <polygon id="Path" points="3.7217 6.3803 2.39899859e-24 6.3803 2.39899859e-24 0.4135 0.9263 0.4135 0.9263 5.5282 3.7217 5.5282"></polygon>
            <path d="M4.7984,0.5459 C4.7984,0.2354 5.0425,-5.99749647e-25 5.3731,-5.99749647e-25 C5.7042,-5.99749647e-25 5.9478,0.2354 5.9478,0.5459 C5.9478,0.8516 5.7041,1.0874 5.3731,1.0874 C5.0425,1.0874 4.7984,0.8515 4.7984,0.5459 Z M4.9307,1.8774 L5.8155,1.8774 L5.8155,6.3803 L4.9307,6.3803 L4.9307,1.8774 Z" id="Shape"></path>
            <path d="M8.8946,1.7905 C9.9078,1.7905 10.5694,2.2617 10.6558,3.0556 L9.8042,3.0556 C9.7212,2.725 9.3989,2.5141 8.8945,2.5141 C8.3979,2.5141 8.0219,2.7495 8.0219,3.101 C8.0219,3.37 8.2494,3.5395 8.7372,3.6513 L9.4857,3.8246 C10.3417,4.0233 10.7425,4.3915 10.7425,5.0531 C10.7425,5.9008 9.9529,6.4672 8.8778,6.4672 C7.8065,6.4672 7.1078,5.9833 7.0292,5.1855 L7.9184,5.1855 C8.0302,5.5327 8.3608,5.7475 8.8984,5.7475 C9.4526,5.7475 9.8457,5.4995 9.8457,5.1396 C9.8457,4.871 9.6348,4.6972 9.1836,4.5898 L8.398,4.4077 C7.542,4.2051 7.1451,3.8208 7.1451,3.1509 C7.1451,2.3525 7.877,1.7905 8.8946,1.7905 Z" id="Path"></path>
            <path d="M13.1099,0.7563 L13.1099,1.8979 L14.0855,1.8979 L14.0855,2.6464 L13.1099,2.6464 L13.1099,4.9618 C13.1099,5.4335 13.3042,5.64 13.7466,5.64 C13.8828,5.64 13.9614,5.6317 14.0855,5.6195 L14.0855,6.3597 C13.941,6.3841 13.7754,6.4051 13.6016,6.4051 C12.6133,6.4051 12.2207,6.0574 12.2207,5.1893 L12.2207,2.6463 L11.5054,2.6463 L11.5054,1.8978 L12.2207,1.8978 L12.2207,0.7563 L13.1099,0.7563 Z" id="Path"></path>
            <path d="M19.0171,5.1645 C18.8145,5.9711 18.0947,6.4672 17.0654,6.4672 C15.7749,6.4672 14.9853,5.5824 14.9853,4.143 C14.9853,2.704 15.7915,1.7905 17.061,1.7905 C18.3139,1.7905 19.0708,2.6465 19.0708,4.0605 L19.0708,4.3706 L15.8906,4.3706 L15.8906,4.4204 C15.9199,5.21 16.3789,5.7104 17.0898,5.7104 C17.6274,5.7104 17.9956,5.5161 18.1611,5.1645 L19.0171,5.1645 Z M15.8907,3.7133 L18.1651,3.7133 C18.1446,3.0063 17.7144,2.5468 17.0572,2.5468 C16.3995,2.5468 15.9405,3.0102 15.8907,3.7133 Z" id="Shape"></path>
            <path d="M20.2632,1.8774 L21.1192,1.8774 L21.1192,2.5927 L21.1856,2.5927 C21.4044,2.0922 21.8511,1.7905 22.5294,1.7905 C23.5343,1.7905 24.0885,2.394 24.0885,3.4653 L24.0885,6.3803 L23.1993,6.3803 L23.1993,3.6884 C23.1993,2.9648 22.8848,2.6049 22.2276,2.6049 C21.5699,2.6049 21.1524,3.0434 21.1524,3.746 L21.1524,6.3803 L20.2632,6.3803 L20.2632,1.8774 Z" id="Path"></path>
            <path d="M27.6822,4.1269 C27.6822,2.6752 28.4927,1.7905 29.8077,1.7905 C31.1182,1.7905 31.9288,2.6753 31.9288,4.1269 C31.9288,5.5864 31.1226,6.4672 29.8077,6.4672 C28.4883,6.4672 27.6822,5.5864 27.6822,4.1269 Z M31.0152,4.1269 C31.0152,3.1508 30.5767,2.58 29.8077,2.58 C29.0343,2.58 28.6002,3.1508 28.6002,4.1269 C28.6002,5.1108 29.0343,5.6772 29.8077,5.6772 C30.5767,5.6772 31.0152,5.1069 31.0152,4.1269 Z" id="Shape"></path>
            <path d="M33.1211,1.8774 L33.9771,1.8774 L33.9771,2.5927 L34.0435,2.5927 C34.2627,2.0922 34.709,1.7905 35.3873,1.7905 C36.3922,1.7905 36.9464,2.394 36.9464,3.4653 L36.9464,6.3803 L36.0572,6.3803 L36.0572,3.6884 C36.0572,2.9648 35.7427,2.6049 35.0855,2.6049 C34.4278,2.6049 34.0103,3.0434 34.0103,3.746 L34.0103,6.3803 L33.1211,6.3803 L33.1211,1.8774 Z" id="Path"></path>
        </g>
        <g id="Group-30" transform="translate(39, 18)" fill="#FFFFFF" fill-rule="nonzero">
            <path d="M3.4972575,7.54594184 C4.87366327,7.54594184 5.56186615,6.77957173 5.56186615,5.15200402 C5.56186615,3.48568471 4.87366327,2.85380548 3.53445766,2.85380548 L2.864412,2.85380548 L2.864412,7.54594184 L3.4972575,7.54594184 Z M-3.57258258e-15,13.8082023 L-3.57258258e-15,0.402424093 L3.53445766,0.402424093 C6.71551381,0.402424093 8.42716384,1.95340038 8.42716384,5.05626475 C8.42716384,8.52248247 6.39931251,9.95902752 3.60885797,9.95902752 L2.88301207,9.95902752 L2.88301207,13.8082023 L-3.57258258e-15,13.8082023 Z" id="Fill-1"></path>
            <path d="M12.7229404,6.0326686 C11.8854941,6.0326686 11.3651348,6.95222153 11.3651348,8.82916725 C11.3651348,10.7248049 11.9040942,11.6635057 12.7601406,11.6635057 C13.5971441,11.6635057 14.1365464,10.7248049 14.1365464,8.84831511 C14.1365464,6.95222153 13.578544,6.0326686 12.7229404,6.0326686 M12.7415405,14 C10.5462885,14 8.79743828,12.2566334 8.79743828,8.86746296 C8.79743828,5.43908508 10.5648886,3.67702649 12.7601406,3.67702649 C14.9367926,3.67702649 16.7037999,5.43908508 16.7037999,8.82916725 C16.7037999,12.2374855 14.9367926,14 12.7415405,14" id="Fill-3"></path>
            <path d="M21.5948233,13.961522 C19.0089696,13.961522 17.4833204,12.1037241 17.4833204,8.86728067 C17.4833204,5.7074286 19.0461698,3.71559574 21.7436239,3.71559574 C22.5996704,3.71559574 23.2502302,3.88792644 23.8830757,4.13684856 L23.4734312,6.54993427 C23.0270293,6.33930786 22.50667,6.16697713 21.9668248,6.16697713 C20.7201768,6.16697713 20.0696169,7.27755277 20.0696169,8.82898496 C20.0696169,10.5139962 20.7201768,11.5101406 22.004025,11.5101406 C22.4880699,11.5101406 22.9898292,11.3569578 23.5292314,11.1463314 L23.938876,13.4632219 C23.2874304,13.7508956 22.4322697,13.961522 21.5948233,13.961522" id="Fill-5"></path>
            <polygon id="Fill-7" points="27.6949403 9.05875922 27.6949403 13.8083392 24.9974861 13.8083392 24.9974861 0 27.6949403 0 27.6949403 8.17750197 29.8901923 3.88792644 32.8480476 3.88792644 30.2249938 8.6375064 32.9224479 13.8083392 29.9273925 13.8083392"></polygon>
            <path d="M37.7764482,8.17768427 C37.720648,6.68415155 37.2924033,5.80289434 36.4744428,5.80289434 C35.6369964,5.80289434 35.2091946,6.72244726 35.1529515,8.17768427 L37.7764482,8.17768427 Z M32.6414982,8.88661082 C32.6414982,5.47738079 34.3349909,3.67702649 36.4744428,3.67702649 C38.7436523,3.67702649 40.2693015,5.45823294 40.2693015,8.94405438 L40.2693015,9.84400359 L35.1529515,9.84400359 C35.2463948,11.2039572 35.9717978,11.8736763 37.1622028,11.8736763 C37.8694486,11.8736763 38.7064521,11.6443579 39.4690553,11.2805486 L39.9531002,13.2336299 C39.0226534,13.7127822 37.9252488,13.9617043 36.8832016,13.9617043 C34.5205489,13.9617043 32.6414982,12.6783421 32.6414982,8.88661082 L32.6414982,8.88661082 Z" id="Fill-9"></path>
            <path d="M41.8114694,10.8396465 L41.8114694,6.1671139 L40.7694222,6.1671139 L40.7694222,3.88806321 L41.8114694,3.88806321 L41.8114694,1.28349898 L44.4903235,1.28349898 L44.4903235,3.88806321 L46.5367749,3.88806321 L46.5367749,6.1671139 L44.4903235,6.1671139 L44.4903235,10.4375415 C44.4903235,11.2613552 44.9185681,11.6060166 45.6435283,11.6060166 C45.9601725,11.6060166 46.2391737,11.5485731 46.5367749,11.4719816 L46.5367749,13.7318845 C46.1275732,13.8659195 45.5505279,13.9425109 44.881368,13.9425109 C42.8349166,13.9425109 41.8114694,13.0804015 41.8114694,10.8396465" id="Fill-11"></path>
            <path d="M55.6880133,13.961522 C52.3019133,13.961522 50.1810616,11.7399149 50.1810616,7.12436993 C50.1810616,2.68161155 52.3577136,0.249378021 55.7066133,0.249378021 C56.8230609,0.249378021 57.7530647,0.479152285 58.4784678,0.766370116 L58.0320659,3.48536558 C57.4554635,3.23689936 56.7858607,3.00712509 55.9856145,3.00712509 C54.200007,3.00712509 53.1393597,4.4623621 53.1393597,7.08607422 C53.1393597,9.78637772 54.1442068,11.2037749 56.0414147,11.2037749 C56.7672606,11.2037749 57.4554635,11.0118405 58.050666,10.7437705 L58.5156679,13.3866304 C57.7158646,13.7317477 56.7300604,13.961522 55.6880133,13.961522" id="Fill-13"></path>
            <path d="M63.9271835,11.7015735 L63.9271835,9.34593143 C63.6667823,9.28848786 63.3691811,9.26934001 63.0529798,9.26934001 C62.4949775,9.26934001 62.1787761,9.38422714 61.9555752,9.59485355 C61.7509744,9.82508371 61.638931,10.1697451 61.638931,10.6671334 C61.638931,11.6632778 62.0671757,12.0653828 62.8107359,12.0653828 C63.1831803,12.0653828 63.573782,11.9121999 63.9271835,11.7015735 M61.6951741,13.9423285 C60.188125,13.9423285 59.1274776,12.9461841 59.1274776,10.8011684 C59.1274776,9.84423157 59.3883216,9.03956574 59.8905237,8.5412656 C60.4299259,7.96728584 61.2297293,7.68006801 62.4391772,7.68006801 C62.9599794,7.68006801 63.4807816,7.75665943 63.9271835,7.85239871 L63.9271835,7.296655 C63.9271835,6.45414937 63.5551819,5.99414494 62.5507777,5.99414494 C61.7695744,5.99414494 60.9321281,6.2243751 60.188125,6.54988865 L59.6859228,4.44316865 C60.6531269,4.04106369 61.7881745,3.73469801 63.0343797,3.73469801 C65.4714327,3.73469801 66.5692805,4.80697791 66.5692805,7.0860286 L66.5692805,12.0462349 L66.7738814,13.8082935 L64.4298286,13.8082935 L64.095027,12.9461841 C63.3877812,13.5785193 62.6995783,13.9423285 61.6951741,13.9423285" id="Fill-15"></path>
            <path d="M71.1435265,13.9806242 C69.8415213,13.9806242 68.632073,13.6359628 67.5904689,13.0610713 L68.1298714,10.8203163 C69.1533181,11.3952079 70.1758794,11.7398692 71.1063263,11.7398692 C71.7949722,11.7398692 72.1669739,11.4335036 72.1669739,11.0117948 C72.1669739,10.590542 71.9437729,10.3995194 70.6413242,9.86337942 C68.8366739,9.11615716 67.9438705,8.40723061 67.9438705,6.7413672 C67.9438705,4.90271718 69.1719182,3.71555015 71.3295274,3.71555015 C72.4269317,3.71555015 73.431779,3.98362013 74.3436259,4.44316865 L73.8037807,6.68392363 C72.9667769,6.24352296 72.1111737,5.95584923 71.3295274,5.95584923 C70.7529247,5.95584923 70.4367233,6.20522725 70.4367233,6.60733221 C70.4367233,6.99028932 70.6413242,7.18176787 71.9251728,7.71836372 C73.9530242,8.5412656 74.6593839,9.30763572 74.6593839,10.8777599 C74.6593839,12.9461841 73.2457782,13.9806242 71.1435265,13.9806242" id="Fill-17"></path>
            <path d="M76.2952607,10.8396465 L76.2952607,6.1671139 L75.2532139,6.1671139 L75.2532139,3.88806321 L76.2952607,3.88806321 L76.2952607,1.28349898 L78.974115,1.28349898 L78.974115,3.88806321 L81.0205664,3.88806321 L81.0205664,6.1671139 L78.974115,6.1671139 L78.974115,10.4375415 C78.974115,11.2613552 79.4023597,11.6060166 80.1273196,11.6060166 C80.4439638,11.6060166 80.7229651,11.5485731 81.0205664,11.4719816 L81.0205664,13.7318845 C80.6113646,13.8659195 80.0343192,13.9425109 79.3651596,13.9425109 C77.3187082,13.9425109 76.2952607,13.0804015 76.2952607,10.8396465" id="Fill-19"></path>
            <path d="M85.4841426,13.9806242 C84.1821367,13.9806242 82.9726891,13.6359628 81.9310843,13.0610713 L82.4704868,10.8203163 C83.4939342,11.3952079 84.5164954,11.7398692 85.4469424,11.7398692 C86.1355877,11.7398692 86.5075894,11.4335036 86.5075894,11.0117948 C86.5075894,10.590542 86.2843883,10.3995194 84.9819403,9.86337942 C83.17729,9.11615716 82.2844859,8.40723061 82.2844859,6.7413672 C82.2844859,4.90271718 83.5125343,3.71555015 85.6701428,3.71555015 C86.7675477,3.71555015 87.7723944,3.98362013 88.6842413,4.44316865 L88.1443961,6.68392363 C87.307393,6.24352296 86.4517891,5.95584923 85.6701428,5.95584923 C85.0935408,5.95584923 84.7773394,6.20522725 84.7773394,6.60733221 C84.7773394,6.99028932 84.9819403,7.18176787 86.2657883,7.71836372 C88.2936396,8.5412656 89,9.30763572 89,10.8777599 C89,12.9461841 87.5863942,13.9806242 85.4841426,13.9806242" id="Fill-21"></path>
        </g>
    </g>
</svg>