<svg width="165" height="40" viewBox="0 0 165 40" fill="none" xmlns="http://www.w3.org/2000/svg">
<path fill-rule="evenodd" clip-rule="evenodd" d="M155.462 0.5H9.54305C9.23725 0.5 9.10229 0.500057 8.93339 0.500345C8.75921 0.500641 8.60154 0.501165 8.4504 0.50199C8.311 0.503042 8.311 0.503042 8.1713 0.504701C8.05152 0.506221 7.95437 0.507728 7.7353 0.511325C7.63567 0.512956 7.63567 0.512956 7.54006 0.514445C6.77538 0.533502 6.17597 0.582236 5.60811 0.683921C4.97379 0.794883 4.40029 0.982751 3.84719 1.2635C3.29474 1.54622 2.78978 1.91365 2.35094 2.35266C1.9137 2.78495 1.54759 3.289 1.2652 3.84594C0.985636 4.39236 0.798958 4.96584 0.686424 5.61118C0.583757 6.17433 0.53462 6.76869 0.51495 7.53851C0.510967 7.67113 0.508359 7.80772 0.505962 7.99046C0.504929 8.07179 0.504929 8.07179 0.503958 8.15353C0.502192 8.3023 0.502192 8.3023 0.500062 8.4443C0.500062 8.98825 0.500062 8.98825 0.500062 9.5361V30.4648C0.500062 30.9042 0.500062 30.9042 0.500062 31.3386C0.500062 31.4485 0.500062 31.4485 0.5 31.5507C0.502192 31.7019 0.502192 31.7019 0.503958 31.8505C0.504915 31.9308 0.504915 31.9308 0.505931 32.0106C0.508331 32.1932 0.510945 32.3304 0.515012 32.4677C0.534621 33.2352 0.583759 33.8296 0.6871 34.3965C0.799338 35.0402 0.986413 35.6158 1.2656 36.1597C1.54833 36.7148 1.91493 37.2179 2.35433 37.6489C2.7891 38.0874 3.29263 38.4535 3.8474 38.7347C4.39346 39.0145 4.96447 39.2017 5.61017 39.3183C6.16902 39.4185 6.75388 39.4656 7.53859 39.4874C7.85803 39.4944 8.15622 39.498 8.45003 39.498C8.60154 39.4988 8.75921 39.4994 8.93339 39.4997C9.10229 39.4999 9.23725 39.5 9.54305 39.5H155.462C155.733 39.5 155.854 39.5 156.004 39.4998C156.203 39.4995 156.379 39.4989 156.547 39.498C156.84 39.498 157.148 39.4944 157.456 39.4875C158.247 39.4657 158.829 39.4186 159.383 39.3184C160.029 39.2018 160.602 39.0145 161.155 38.7339C161.708 38.4534 162.211 38.087 162.649 37.6448C163.081 37.2195 163.449 36.7156 163.737 36.1609C164.016 35.6102 164.203 35.0321 164.311 34.3909C164.413 33.8435 164.46 33.2868 164.488 32.4742C164.49 32.3308 164.491 32.1828 164.492 32.0156C164.492 31.8894 164.492 31.7888 164.492 31.5479C164.495 31.4399 164.495 31.4399 164.496 31.3317C164.499 31.0932 164.5 30.9019 164.5 30.4648V9.5361C164.5 8.99185 164.499 8.75236 164.492 8.4443C164.492 8.21448 164.492 8.1127 164.492 7.98544C164.491 7.81794 164.49 7.67035 164.489 7.54094C164.46 6.71709 164.413 6.16038 164.31 5.60478C164.203 4.97383 164.016 4.39803 163.739 3.84737C163.45 3.28832 163.083 2.78339 162.647 2.35037C162.211 1.91386 161.706 1.54619 161.157 1.26502C160.595 0.982525 160.02 0.79468 159.383 0.683324C158.822 0.581999 158.225 0.533354 157.462 0.514435C157.374 0.513008 157.374 0.513008 157.286 0.511551C157.144 0.509206 157.144 0.509206 157.001 0.507006C156.826 0.504389 156.681 0.502689 156.545 0.501794C156.38 0.500969 156.206 0.500479 156.009 0.500231C155.735 0.5 155.735 0.5 155.462 0.5Z" fill="black" stroke="#222326"/>
<path fill-rule="evenodd" clip-rule="evenodd" d="M89.3475 18.6666C89.8656 18.9767 90.5369 18.8046 90.845 18.2823C91.153 17.7609 90.9826 17.0865 90.4631 16.7764C86.1268 14.1881 79.2652 13.9448 75.1376 15.2046C74.5598 15.3811 74.2341 15.9947 74.4091 16.5756C74.5841 17.1562 75.1947 17.484 75.7721 17.3079C79.3678 16.2105 85.5808 16.4173 89.3475 18.6666ZM89.2241 21.9982C89.4874 21.568 89.3526 21.0039 88.9244 20.7387C85.3177 18.5099 80.0418 17.8827 75.7976 19.1776C75.3168 19.325 75.045 19.8357 75.1902 20.3202C75.3364 20.8037 75.8453 21.0769 76.3271 20.9305C80.0423 19.7966 84.8308 20.3588 87.9711 22.2998C88.3993 22.5645 88.96 22.4293 89.2241 21.9982ZM87.7943 25.1977C88.0043 24.8525 87.8962 24.4014 87.5528 24.1905C84.4728 22.298 80.6545 21.8576 76.2032 22.8808C75.8104 22.9708 75.5657 23.3635 75.6556 23.7576C75.745 24.1516 76.1356 24.3987 76.5275 24.3084C80.595 23.374 84.0488 23.755 86.793 25.4414C87.136 25.6524 87.5844 25.5438 87.7943 25.1977ZM82.4354 8.25C88.8891 8.25 94.1206 13.5105 94.1206 19.9999C94.1206 26.4896 88.8891 31.75 82.4354 31.75C75.9818 31.75 70.75 26.4896 70.75 19.9999C70.75 13.5105 75.9818 8.25 82.4354 8.25ZM102.542 19.0972C105 19.6983 106.002 20.6314 106.002 22.3185C106.002 24.3147 104.485 25.6046 102.138 25.6046C100.478 25.6046 98.9409 25.0116 97.6905 23.8893C97.6371 23.8418 97.6312 23.7599 97.6776 23.705L98.7821 22.3832C98.8047 22.3558 98.8373 22.3393 98.8727 22.3363C98.9065 22.3343 98.943 22.345 98.9697 22.368C100.044 23.3037 101.005 23.7026 102.183 23.7026C103.243 23.7026 103.902 23.2413 103.902 22.4992C103.902 21.8294 103.576 21.4549 101.645 21.0077C99.377 20.4564 98.0644 19.7422 98.0644 17.7253C98.0644 15.8444 99.586 14.5299 101.764 14.5299C103.246 14.5299 104.514 14.9714 105.639 15.8796C105.694 15.9237 105.705 16.0028 105.664 16.0604L104.679 17.4567C104.658 17.4862 104.627 17.5056 104.592 17.5109C104.557 17.5165 104.521 17.508 104.492 17.4865C103.546 16.7774 102.644 16.4329 101.735 16.4329C100.796 16.4329 100.165 16.8864 100.165 17.5606C100.165 18.2739 100.524 18.6135 102.542 19.0972ZM113.017 21.3583C113.017 19.9566 112.124 18.9397 110.895 18.9397C109.66 18.9397 108.728 19.9791 108.728 21.3583C108.728 22.7377 109.66 23.777 110.895 23.777C112.144 23.777 113.017 22.7829 113.017 21.3583ZM111.313 17.0964C113.204 17.0964 115.118 18.5603 115.118 21.3583C115.118 24.1558 113.204 25.6193 111.313 25.6193C110.296 25.6193 109.461 25.2399 108.773 24.4631V27.7228C108.773 27.7962 108.714 27.856 108.641 27.856H106.834C106.761 27.856 106.702 27.7962 106.702 27.7228V17.3957C106.702 17.3223 106.761 17.2625 106.834 17.2625H108.641C108.714 17.2625 108.773 17.3223 108.773 17.3957V18.3251C109.461 17.4994 110.296 17.0964 111.313 17.0964ZM120.023 23.7919C121.331 23.7919 122.28 22.7816 122.28 21.3888C122.28 20.0006 121.297 18.9543 119.994 18.9543C118.695 18.9543 117.752 19.9653 117.752 21.3583C117.752 22.7456 118.728 23.7919 120.023 23.7919ZM120.023 17.0964C122.45 17.0964 124.35 18.9684 124.35 21.3583C124.35 23.7562 122.437 25.6351 119.994 25.6351C117.576 25.6351 115.681 23.7697 115.681 21.3888C115.681 18.9816 117.589 17.0964 120.023 17.0964ZM129.55 17.2625C129.623 17.2625 129.681 17.3223 129.681 17.3957V18.9569C129.681 19.0302 129.623 19.0899 129.55 19.0899H127.562V22.8451C127.562 23.4382 127.82 23.7026 128.4 23.7026C128.776 23.7026 129.112 23.6214 129.46 23.4453C129.501 23.4253 129.55 23.4265 129.589 23.4514C129.628 23.4755 129.652 23.5187 129.652 23.5646V25.0513C129.652 25.0987 129.626 25.1434 129.585 25.1665C129.078 25.4554 128.541 25.59 127.893 25.59C126.299 25.59 125.491 24.7623 125.491 23.1298V19.0899H124.622C124.55 19.0899 124.491 19.0302 124.491 18.9569V17.3957C124.491 17.3223 124.55 17.2625 124.622 17.2625H125.491V15.2188C125.491 15.1454 125.55 15.0858 125.624 15.0858H127.43C127.503 15.0858 127.562 15.1454 127.562 15.2188V17.2625H129.55ZM136.476 17.2705H139.562C139.617 17.2705 139.666 17.3045 139.685 17.3561L141.796 22.8932L143.722 17.3598C143.741 17.3065 143.791 17.2705 143.847 17.2705H145.728C145.772 17.2705 145.812 17.2923 145.837 17.3282C145.862 17.3647 145.866 17.4109 145.851 17.4518L142.717 25.5954C142.066 27.2763 141.329 27.9013 139.995 27.9013C139.282 27.9013 138.705 27.7527 138.066 27.4046C138.005 27.3715 137.98 27.2966 138.009 27.2327L138.621 25.8819C138.636 25.8481 138.665 25.8225 138.699 25.8101C138.734 25.7993 138.772 25.8022 138.805 25.8201C139.147 26.0086 139.483 26.1042 139.801 26.1042C140.195 26.1042 140.483 25.974 140.776 25.3194L138.193 19.0899H136.506V25.3211C136.506 25.3945 136.446 25.4541 136.373 25.4541H134.567C134.494 25.4541 134.435 25.3945 134.435 25.3211V19.0899H133.567C133.494 19.0899 133.435 19.0302 133.435 18.9569V17.3877C133.435 17.3145 133.494 17.2547 133.567 17.2547H134.435V16.8702C134.435 15.0837 135.317 14.1388 136.986 14.1388C137.671 14.1388 138.129 14.2488 138.487 14.3557C138.543 14.373 138.581 14.4249 138.581 14.4833V16.0141C138.581 16.0567 138.561 16.097 138.526 16.1221C138.492 16.1472 138.449 16.1538 138.407 16.1406C138.068 16.027 137.766 15.9518 137.389 15.9518C136.758 15.9518 136.476 16.2811 136.476 17.0195V17.2705ZM132.461 17.2625C132.533 17.2625 132.593 17.3223 132.593 17.3957V25.3211C132.593 25.3945 132.533 25.4541 132.461 25.4541H130.654C130.581 25.4541 130.522 25.3945 130.522 25.3211V17.3957C130.522 17.3223 130.581 17.2625 130.654 17.2625H132.461ZM131.566 13.6539C132.282 13.6539 132.862 14.2366 132.862 14.9563C132.862 15.6762 132.282 16.2595 131.566 16.2595C130.851 16.2595 130.27 15.6762 130.27 14.9563C130.27 14.2366 130.851 13.6539 131.566 13.6539ZM147.467 18.051H147.136V18.4754H147.467C147.632 18.4754 147.731 18.3941 147.731 18.263C147.731 18.1249 147.632 18.051 147.467 18.051ZM147.682 18.6564L148.041 19.1626H147.738L147.414 18.6983H147.136V19.1626H146.882V17.8208H147.477C147.787 17.8208 147.991 17.9802 147.991 18.2488C147.991 18.4688 147.865 18.6032 147.682 18.6564ZM147.4 17.3742C146.749 17.3742 146.256 17.8948 146.256 18.5322C146.256 19.1692 146.745 19.6829 147.393 19.6829C148.044 19.6829 148.537 19.1626 148.537 18.5249C148.537 17.8878 148.048 17.3742 147.4 17.3742ZM147.393 19.8107C146.678 19.8107 146.122 19.2333 146.122 18.5322C146.122 17.8309 146.685 17.2471 147.4 17.2471C148.115 17.2471 148.671 17.8243 148.671 18.5249C148.671 19.226 148.108 19.8107 147.393 19.8107Z" fill="#1ED760"/>
<path fill-rule="evenodd" clip-rule="evenodd" d="M19.609 22.904H15.75V16.8775H16.923V21.782H19.609V22.904ZM22.4064 22.904H21.2164V16.8775H22.4064V22.904ZM28.6378 18.314L27.5838 18.637C27.5243 18.3055 27.2523 17.787 26.4873 17.787C25.9178 17.787 25.5438 18.1525 25.5438 18.552C25.5438 18.8835 25.7563 19.147 26.1983 19.232L27.0398 19.3935C28.1363 19.606 28.7228 20.32 28.7228 21.17C28.7228 22.0965 27.9493 23.0315 26.5468 23.0315C24.9488 23.0315 24.2433 22.003 24.1498 21.1445L25.2378 20.8555C25.2888 21.4505 25.7053 21.986 26.5553 21.986C27.1843 21.986 27.5328 21.6715 27.5328 21.2465C27.5328 20.898 27.2693 20.626 26.8018 20.5325L25.9603 20.3625C24.9998 20.167 24.3793 19.5465 24.3793 18.637C24.3793 17.566 25.3398 16.75 26.4788 16.75C27.9408 16.75 28.5018 17.634 28.6378 18.314ZM34.9883 17.991H33.0843V22.904H31.9028V17.991H29.9988V16.8775H34.9883V17.991ZM40.3697 22.904H36.5957V16.8775H40.3697V17.9825H37.7687V19.3595H40.1232V20.405H37.7687V21.799H40.3697V22.904ZM47.4171 22.904H46.1846L43.4476 18.6285V22.904H42.2746V16.8775H43.7366L46.2441 20.864V16.8775H47.4171V22.904ZM53.1054 19.8865C53.1054 21.2465 54.0574 21.8925 54.9839 21.8925C55.9189 21.8925 56.8709 21.2465 56.8709 19.8865C56.8709 18.5265 55.9189 17.8805 54.9839 17.8805C54.0574 17.8805 53.1054 18.5265 53.1054 19.8865ZM51.8899 19.895C51.8899 17.9485 53.3519 16.75 54.9839 16.75C56.6244 16.75 58.0864 17.9485 58.0864 19.895C58.0864 21.833 56.6244 23.0315 54.9839 23.0315C53.3519 23.0315 51.8899 21.833 51.8899 19.895ZM65.0489 22.904H63.8164L61.0794 18.6285V22.904H59.9064V16.8775H61.3684L63.8759 20.864V16.8775H65.0489V22.904Z" fill="white"/>
</svg>
